<svg xmlns="http://www.w3.org/2000/svg" xmlns:xlink="http://www.w3.org/1999/xlink" width="500" zoomAndPan="magnify" viewBox="0 0 375 374.999991" height="500" preserveAspectRatio="xMidYMid meet" version="1.0"><defs><g/><clipPath id="216839350e"><path d="M 233.515625 103.160156 L 351 103.160156 L 351 271 L 233.515625 271 Z M 233.515625 103.160156 " clip-rule="nonzero"/></clipPath><clipPath id="296cc0a04a"><path d="M 101 135 L 106 135 L 106 147 L 101 147 Z M 101 135 " clip-rule="nonzero"/></clipPath><clipPath id="63ad9ed735"><path d="M 23.761719 121.945312 L 94.796875 103.066406 L 106.546875 147.285156 L 35.511719 166.160156 Z M 23.761719 121.945312 " clip-rule="nonzero"/></clipPath><clipPath id="158926664d"><path d="M 23.761719 121.945312 L 94.796875 103.066406 L 106.546875 147.285156 L 35.511719 166.160156 Z M 23.761719 121.945312 " clip-rule="nonzero"/></clipPath><clipPath id="7736d4ed6b"><path d="M 36 154 L 41 154 L 41 165 L 36 165 Z M 36 154 " clip-rule="nonzero"/></clipPath><clipPath id="c4afee9f75"><path d="M 23.761719 121.945312 L 94.796875 103.066406 L 106.546875 147.285156 L 35.511719 166.160156 Z M 23.761719 121.945312 " clip-rule="nonzero"/></clipPath><clipPath id="ba0060af43"><path d="M 23.761719 121.945312 L 94.796875 103.066406 L 106.546875 147.285156 L 35.511719 166.160156 Z M 23.761719 121.945312 " clip-rule="nonzero"/></clipPath><clipPath id="bc7de76f21"><path d="M 34 154 L 37 154 L 37 164 L 34 164 Z M 34 154 " clip-rule="nonzero"/></clipPath><clipPath id="cff0bbdc84"><path d="M 23.761719 121.945312 L 94.796875 103.066406 L 106.546875 147.285156 L 35.511719 166.160156 Z M 23.761719 121.945312 " clip-rule="nonzero"/></clipPath><clipPath id="275c1cc154"><path d="M 23.761719 121.945312 L 94.796875 103.066406 L 106.546875 147.285156 L 35.511719 166.160156 Z M 23.761719 121.945312 " clip-rule="nonzero"/></clipPath><clipPath id="177193b273"><path d="M 101 137 L 104 137 L 104 145 L 101 145 Z M 101 137 " clip-rule="nonzero"/></clipPath><clipPath id="a007409cd3"><path d="M 23.761719 121.945312 L 94.796875 103.066406 L 106.546875 147.285156 L 35.511719 166.160156 Z M 23.761719 121.945312 " clip-rule="nonzero"/></clipPath><clipPath id="e81ee168d8"><path d="M 23.761719 121.945312 L 94.796875 103.066406 L 106.546875 147.285156 L 35.511719 166.160156 Z M 23.761719 121.945312 " clip-rule="nonzero"/></clipPath><clipPath id="f6c6e5d46b"><path d="M 37 154 L 41 154 L 41 163 L 37 163 Z M 37 154 " clip-rule="nonzero"/></clipPath><clipPath id="d067111150"><path d="M 23.761719 121.945312 L 94.796875 103.066406 L 106.546875 147.285156 L 35.511719 166.160156 Z M 23.761719 121.945312 " clip-rule="nonzero"/></clipPath><clipPath id="bb50d3b3d7"><path d="M 23.761719 121.945312 L 94.796875 103.066406 L 106.546875 147.285156 L 35.511719 166.160156 Z M 23.761719 121.945312 " clip-rule="nonzero"/></clipPath><clipPath id="dea4b99b25"><path d="M 34 111 L 102 111 L 102 156 L 34 156 Z M 34 111 " clip-rule="nonzero"/></clipPath><clipPath id="71f99acc2f"><path d="M 23.761719 121.945312 L 94.796875 103.066406 L 106.546875 147.285156 L 35.511719 166.160156 Z M 23.761719 121.945312 " clip-rule="nonzero"/></clipPath><clipPath id="3a67f8e3bf"><path d="M 23.761719 121.945312 L 94.796875 103.066406 L 106.546875 147.285156 L 35.511719 166.160156 Z M 23.761719 121.945312 " clip-rule="nonzero"/></clipPath><clipPath id="361da4a6ea"><path d="M 36 153 L 38 153 L 38 155 L 36 155 Z M 36 153 " clip-rule="nonzero"/></clipPath><clipPath id="0bdf44a56a"><path d="M 23.761719 121.945312 L 94.796875 103.066406 L 106.546875 147.285156 L 35.511719 166.160156 Z M 23.761719 121.945312 " clip-rule="nonzero"/></clipPath><clipPath id="d3bc10acf3"><path d="M 23.761719 121.945312 L 94.796875 103.066406 L 106.546875 147.285156 L 35.511719 166.160156 Z M 23.761719 121.945312 " clip-rule="nonzero"/></clipPath><clipPath id="45f12a1980"><path d="M 35 111 L 101 111 L 101 155 L 35 155 Z M 35 111 " clip-rule="nonzero"/></clipPath><clipPath id="28c7f62f22"><path d="M 23.761719 121.945312 L 94.796875 103.066406 L 106.546875 147.285156 L 35.511719 166.160156 Z M 23.761719 121.945312 " clip-rule="nonzero"/></clipPath><clipPath id="31c1a6f875"><path d="M 23.761719 121.945312 L 94.796875 103.066406 L 106.546875 147.285156 L 35.511719 166.160156 Z M 23.761719 121.945312 " clip-rule="nonzero"/></clipPath><clipPath id="6f4d5de7fc"><path d="M 55 141 L 57 141 L 57 142 L 55 142 Z M 55 141 " clip-rule="nonzero"/></clipPath><clipPath id="9d80601398"><path d="M 23.761719 121.945312 L 94.796875 103.066406 L 106.546875 147.285156 L 35.511719 166.160156 Z M 23.761719 121.945312 " clip-rule="nonzero"/></clipPath><clipPath id="6846ff502f"><path d="M 23.761719 121.945312 L 94.796875 103.066406 L 106.546875 147.285156 L 35.511719 166.160156 Z M 23.761719 121.945312 " clip-rule="nonzero"/></clipPath><clipPath id="d04f546e61"><path d="M 55 140 L 57 140 L 57 142 L 55 142 Z M 55 140 " clip-rule="nonzero"/></clipPath><clipPath id="5115f5511a"><path d="M 23.761719 121.945312 L 94.796875 103.066406 L 106.546875 147.285156 L 35.511719 166.160156 Z M 23.761719 121.945312 " clip-rule="nonzero"/></clipPath><clipPath id="b73542d569"><path d="M 23.761719 121.945312 L 94.796875 103.066406 L 106.546875 147.285156 L 35.511719 166.160156 Z M 23.761719 121.945312 " clip-rule="nonzero"/></clipPath><clipPath id="24d724c674"><path d="M 57 134 L 78 134 L 78 141 L 57 141 Z M 57 134 " clip-rule="nonzero"/></clipPath><clipPath id="0710f2386f"><path d="M 23.761719 121.945312 L 94.796875 103.066406 L 106.546875 147.285156 L 35.511719 166.160156 Z M 23.761719 121.945312 " clip-rule="nonzero"/></clipPath><clipPath id="d6ad2b888d"><path d="M 23.761719 121.945312 L 94.796875 103.066406 L 106.546875 147.285156 L 35.511719 166.160156 Z M 23.761719 121.945312 " clip-rule="nonzero"/></clipPath><clipPath id="c831a53b0f"><path d="M 78 134 L 80 134 L 80 137 L 78 137 Z M 78 134 " clip-rule="nonzero"/></clipPath><clipPath id="fbf3b884d4"><path d="M 23.761719 121.945312 L 94.796875 103.066406 L 106.546875 147.285156 L 35.511719 166.160156 Z M 23.761719 121.945312 " clip-rule="nonzero"/></clipPath><clipPath id="2dea9ab24a"><path d="M 23.761719 121.945312 L 94.796875 103.066406 L 106.546875 147.285156 L 35.511719 166.160156 Z M 23.761719 121.945312 " clip-rule="nonzero"/></clipPath><clipPath id="09282bfebd"><path d="M 57 136 L 78 136 L 78 142 L 57 142 Z M 57 136 " clip-rule="nonzero"/></clipPath><clipPath id="d3089663c7"><path d="M 23.761719 121.945312 L 94.796875 103.066406 L 106.546875 147.285156 L 35.511719 166.160156 Z M 23.761719 121.945312 " clip-rule="nonzero"/></clipPath><clipPath id="f55192f467"><path d="M 23.761719 121.945312 L 94.796875 103.066406 L 106.546875 147.285156 L 35.511719 166.160156 Z M 23.761719 121.945312 " clip-rule="nonzero"/></clipPath><clipPath id="17b60653bd"><path d="M 55 117 L 69 117 L 69 132 L 55 132 Z M 55 117 " clip-rule="nonzero"/></clipPath><clipPath id="7340ea9882"><path d="M 23.761719 121.945312 L 94.796875 103.066406 L 106.546875 147.285156 L 35.511719 166.160156 Z M 23.761719 121.945312 " clip-rule="nonzero"/></clipPath><clipPath id="d43510fd2f"><path d="M 23.761719 121.945312 L 94.796875 103.066406 L 106.546875 147.285156 L 35.511719 166.160156 Z M 23.761719 121.945312 " clip-rule="nonzero"/></clipPath><clipPath id="4d075a7ef1"><path d="M 76 119 L 87 119 L 87 130 L 76 130 Z M 76 119 " clip-rule="nonzero"/></clipPath><clipPath id="be936deb76"><path d="M 23.761719 121.945312 L 94.796875 103.066406 L 106.546875 147.285156 L 35.511719 166.160156 Z M 23.761719 121.945312 " clip-rule="nonzero"/></clipPath><clipPath id="bd96090290"><path d="M 23.761719 121.945312 L 94.796875 103.066406 L 106.546875 147.285156 L 35.511719 166.160156 Z M 23.761719 121.945312 " clip-rule="nonzero"/></clipPath><clipPath id="b8a6863d14"><path d="M 43 130 L 51 130 L 51 138 L 43 138 Z M 43 130 " clip-rule="nonzero"/></clipPath><clipPath id="ae244020eb"><path d="M 23.761719 121.945312 L 94.796875 103.066406 L 106.546875 147.285156 L 35.511719 166.160156 Z M 23.761719 121.945312 " clip-rule="nonzero"/></clipPath><clipPath id="7a5219bb83"><path d="M 23.761719 121.945312 L 94.796875 103.066406 L 106.546875 147.285156 L 35.511719 166.160156 Z M 23.761719 121.945312 " clip-rule="nonzero"/></clipPath><clipPath id="a0b878b7ca"><path d="M 40 127 L 53 127 L 53 140 L 40 140 Z M 40 127 " clip-rule="nonzero"/></clipPath><clipPath id="afda095bed"><path d="M 23.761719 121.945312 L 94.796875 103.066406 L 106.546875 147.285156 L 35.511719 166.160156 Z M 23.761719 121.945312 " clip-rule="nonzero"/></clipPath><clipPath id="2e215b37e0"><path d="M 23.761719 121.945312 L 94.796875 103.066406 L 106.546875 147.285156 L 35.511719 166.160156 Z M 23.761719 121.945312 " clip-rule="nonzero"/></clipPath><clipPath id="8dcc07a2c2"><path d="M 54 116 L 71 116 L 71 133 L 54 133 Z M 54 116 " clip-rule="nonzero"/></clipPath><clipPath id="7d5c9fb785"><path d="M 23.761719 121.945312 L 94.796875 103.066406 L 106.546875 147.285156 L 35.511719 166.160156 Z M 23.761719 121.945312 " clip-rule="nonzero"/></clipPath><clipPath id="84975d1c39"><path d="M 23.761719 121.945312 L 94.796875 103.066406 L 106.546875 147.285156 L 35.511719 166.160156 Z M 23.761719 121.945312 " clip-rule="nonzero"/></clipPath><clipPath id="7f8c1d8bed"><path d="M 75 118 L 88 118 L 88 132 L 75 132 Z M 75 118 " clip-rule="nonzero"/></clipPath><clipPath id="c32bc08021"><path d="M 23.761719 121.945312 L 94.796875 103.066406 L 106.546875 147.285156 L 35.511719 166.160156 Z M 23.761719 121.945312 " clip-rule="nonzero"/></clipPath><clipPath id="35e1823bc0"><path d="M 23.761719 121.945312 L 94.796875 103.066406 L 106.546875 147.285156 L 35.511719 166.160156 Z M 23.761719 121.945312 " clip-rule="nonzero"/></clipPath></defs><g fill="#fffcf6" fill-opacity="1"><g transform="translate(71.050569, 245.880041)"><g/></g></g><g fill="#fffcf6" fill-opacity="1"><g transform="translate(86.027131, 245.880041)"><g><path d="M 40.0625 -49.59375 L 40.0625 -39.921875 L 26.921875 -39.921875 L 26.921875 0 L 14.84375 0 L 14.84375 -39.921875 L 1.703125 -39.921875 L 1.703125 -49.59375 Z M 40.0625 -49.59375 "/></g></g></g><g fill="#fffcf6" fill-opacity="1"><g transform="translate(127.775736, 245.880041)"><g><path d="M 16.46875 -39.921875 L 16.46875 -29.890625 L 32.640625 -29.890625 L 32.640625 -20.5625 L 16.46875 -20.5625 L 16.46875 -9.6875 L 34.765625 -9.6875 L 34.765625 0 L 4.375 0 L 4.375 -49.59375 L 34.765625 -49.59375 L 34.765625 -39.921875 Z M 16.46875 -39.921875 "/></g></g></g><g fill="#fffcf6" fill-opacity="1"><g transform="translate(165.992305, 245.880041)"><g><path d="M 2.328125 -24.875 C 2.328125 -29.769531 3.382812 -34.132812 5.5 -37.96875 C 7.625 -41.8125 10.582031 -44.804688 14.375 -46.953125 C 18.164062 -49.097656 22.460938 -50.171875 27.265625 -50.171875 C 33.160156 -50.171875 38.203125 -48.613281 42.390625 -45.5 C 46.585938 -42.394531 49.390625 -38.15625 50.796875 -32.78125 L 37.515625 -32.78125 C 36.523438 -34.851562 35.125 -36.429688 33.3125 -37.515625 C 31.5 -38.597656 29.4375 -39.140625 27.125 -39.140625 C 23.40625 -39.140625 20.390625 -37.84375 18.078125 -35.25 C 15.773438 -32.664062 14.625 -29.207031 14.625 -24.875 C 14.625 -20.539062 15.773438 -17.078125 18.078125 -14.484375 C 20.390625 -11.890625 23.40625 -10.59375 27.125 -10.59375 C 29.4375 -10.59375 31.5 -11.132812 33.3125 -12.21875 C 35.125 -13.300781 36.523438 -14.878906 37.515625 -16.953125 L 50.796875 -16.953125 C 49.390625 -11.585938 46.585938 -7.359375 42.390625 -4.265625 C 38.203125 -1.179688 33.160156 0.359375 27.265625 0.359375 C 22.460938 0.359375 18.164062 -0.710938 14.375 -2.859375 C 10.582031 -5.003906 7.625 -7.984375 5.5 -11.796875 C 3.382812 -15.609375 2.328125 -19.96875 2.328125 -24.875 Z M 2.328125 -24.875 "/></g></g></g><g fill="#fffcf6" fill-opacity="1"><g transform="translate(219.820457, 245.880041)"><g><path d="M 47.34375 -49.59375 L 47.34375 0 L 35.25 0 L 35.25 -20.421875 L 16.46875 -20.421875 L 16.46875 0 L 4.375 0 L 4.375 -49.59375 L 16.46875 -49.59375 L 16.46875 -30.171875 L 35.25 -30.171875 L 35.25 -49.59375 Z M 47.34375 -49.59375 "/></g></g></g><g clip-path="url(#216839350e)"><path fill="#000000" d="M 270.441406 194.933594 L 270.441406 226.8125 C 270.414062 226.8125 270.363281 226.8125 270.335938 226.8125 C 269.625 228.886719 269.046875 231.042969 268.941406 233.25 C 268.890625 234.75 269.101562 236.195312 269.152344 237.640625 C 269.363281 237.691406 269.546875 237.746094 269.730469 237.773438 L 269.730469 260.085938 C 264.683594 260.085938 260.085938 259.902344 255.539062 260.191406 C 254.144531 260.292969 252.832031 261.742188 251.464844 262.554688 C 252.464844 263.789062 253.226562 265.339844 254.488281 266.15625 C 255.90625 267.050781 257.746094 267.3125 259.429688 267.707031 C 277.011719 271.78125 294.699219 271.097656 312.28125 268.101562 C 319.402344 266.890625 326.367188 264.578125 333.253906 262.371094 C 334.542969 261.949219 335.199219 259.636719 336.171875 258.191406 C 334.566406 257.535156 333.015625 256.617188 331.363281 256.328125 C 330.019531 256.089844 328.574219 256.71875 327.15625 256.851562 C 322.503906 257.324219 317.851562 257.746094 312.832031 258.246094 C 313.304688 253.515625 313.753906 249.097656 314.199219 244.789062 C 313.832031 241.660156 314.410156 238.558594 314.542969 235.378906 C 314.699219 231.59375 314.75 227.914062 315.539062 224.183594 C 315.566406 224.105469 315.59375 224.050781 315.617188 223.972656 C 315.828125 220.398438 315.511719 216.851562 317.089844 214.566406 C 319.089844 211.648438 318.589844 210.097656 316.328125 207.652344 C 326.472656 204.261719 334.148438 198.347656 339.429688 189.703125 C 346.605469 178.007812 350.335938 165.15625 350.886719 151.464844 C 351.230469 143.078125 346.632812 137.269531 339.480469 136.457031 C 332.332031 135.640625 326.867188 140.265625 325.132812 148.570312 C 324.421875 151.988281 323.976562 155.457031 323.03125 158.796875 C 322.6875 160.003906 321.296875 160.925781 320.375 161.976562 C 319.769531 160.714844 318.71875 159.480469 318.695312 158.21875 C 318.484375 152.199219 319.273438 146.050781 318.324219 140.1875 C 317.089844 132.621094 315.328125 124.917969 312.253906 117.953125 C 308.8125 110.175781 303.109375 103.183594 293.410156 103.605469 C 283.792969 104.050781 279.085938 111.460938 275.511719 119.375 C 271.597656 128.074219 270.835938 137.375 270.992188 146.8125 C 271.070312 151.277344 268.417969 158.453125 270.625 158.902344 L 270.625 168.414062 C 270.179688 168.652344 269.757812 168.886719 269.3125 169.125 C 267.65625 167.046875 265.394531 165.234375 264.449219 162.871094 C 262.714844 158.480469 261.6875 153.800781 260.453125 149.230469 C 258.929688 143.578125 257.929688 137.769531 255.933594 132.332031 C 254.144531 127.441406 249.835938 125.15625 244.632812 125.207031 C 240.03125 125.261719 235.433594 128.570312 234.328125 133.011719 C 233.671875 135.695312 233.515625 138.742188 234.066406 141.449219 C 235.90625 150.4375 237.878906 159.398438 240.296875 168.257812 C 244.5 183.578125 253.832031 193.382812 270.441406 194.933594 Z M 339.273438 148.703125 C 339.402344 149.886719 339.71875 151.09375 339.613281 152.277344 C 339.296875 155.511719 338.851562 158.691406 338.195312 161.816406 C 338.851562 158.691406 339.296875 155.511719 339.613281 152.277344 C 339.746094 151.09375 339.402344 149.886719 339.273438 148.703125 Z M 338.195312 161.871094 C 337.667969 164.472656 336.984375 166.996094 336.171875 169.492188 C 336.984375 167.023438 337.667969 164.472656 338.195312 161.871094 Z M 335.515625 152.726562 C 335.617188 152.382812 335.722656 152.042969 335.855469 151.699219 C 335.75 152.042969 335.617188 152.382812 335.515625 152.726562 C 335.410156 153.09375 335.304688 153.488281 335.226562 153.855469 C 335.328125 153.488281 335.433594 153.09375 335.515625 152.726562 Z M 307.496094 193.511719 C 308.074219 193.039062 308.679688 192.644531 309.3125 192.488281 C 308.679688 192.621094 308.074219 193.039062 307.496094 193.511719 Z M 281.6875 254.800781 C 281.714844 250.230469 281.742188 245.65625 281.792969 241.082031 C 281.769531 245.65625 281.742188 250.230469 281.6875 254.800781 C 281.6875 254.90625 281.6875 254.984375 281.6875 255.089844 C 281.6875 254.984375 281.6875 254.90625 281.6875 254.800781 Z M 281.742188 257.140625 C 281.820312 257.296875 281.898438 257.457031 282.003906 257.613281 C 281.925781 257.457031 281.820312 257.296875 281.742188 257.140625 C 281.636719 256.90625 281.585938 256.617188 281.585938 256.328125 C 281.609375 256.617188 281.636719 256.90625 281.742188 257.140625 Z M 270.835938 182.132812 C 270.703125 182.554688 270.570312 183 270.441406 183.421875 C 270.570312 182.976562 270.703125 182.554688 270.835938 182.132812 C 270.757812 181.84375 270.730469 181.503906 270.570312 181.292969 C 270.730469 181.503906 270.730469 181.84375 270.835938 182.132812 Z M 270.441406 181.1875 C 270.308594 181.054688 270.125 180.949219 269.941406 180.898438 C 270.125 180.949219 270.308594 181.054688 270.441406 181.1875 Z M 253.332031 170.464844 C 252.304688 167.335938 251.359375 164.210938 250.492188 161.03125 C 251.359375 164.183594 252.304688 167.335938 253.332031 170.464844 C 253.882812 172.09375 254.828125 173.671875 256.011719 175.144531 C 254.855469 173.671875 253.882812 172.09375 253.332031 170.464844 Z M 248.207031 142.105469 C 250.125 149.597656 251.648438 157.21875 253.855469 164.628906 C 255.433594 169.886719 257.667969 174.644531 261.6875 177.664062 C 257.667969 174.644531 255.433594 169.886719 253.855469 164.628906 C 251.648438 157.191406 250.125 149.597656 248.207031 142.105469 C 247.863281 140.792969 247.234375 139.582031 246.65625 138.347656 C 247.234375 139.558594 247.863281 140.792969 248.207031 142.105469 Z M 246.3125 137.558594 C 245.734375 137.769531 245.15625 137.980469 244.605469 138.164062 C 245.15625 137.980469 245.734375 137.769531 246.3125 137.558594 Z M 246.3125 137.558594 " fill-opacity="1" fill-rule="nonzero"/><path fill="#000000" d="M 339.507812 136.484375 C 332.359375 135.667969 326.894531 140.292969 325.160156 148.597656 C 324.449219 152.015625 324.003906 155.484375 323.054688 158.820312 C 322.714844 160.03125 321.320312 160.949219 320.402344 162.003906 C 319.796875 160.742188 318.746094 159.503906 318.71875 158.242188 C 318.507812 152.226562 319.296875 146.074219 318.351562 140.214844 C 317.117188 132.644531 315.355469 124.945312 312.28125 117.980469 C 308.8125 110.175781 303.109375 103.183594 293.410156 103.605469 C 283.792969 104.050781 279.085938 111.460938 275.511719 119.375 C 271.597656 128.074219 270.835938 137.375 270.992188 146.8125 C 271.070312 151.277344 268.417969 158.453125 270.625 158.902344 L 270.625 168.414062 C 270.179688 168.652344 269.757812 168.886719 269.3125 169.125 C 267.65625 167.046875 265.394531 165.234375 264.449219 162.871094 C 262.714844 158.480469 261.6875 153.800781 260.453125 149.230469 C 258.929688 143.578125 257.929688 137.769531 255.933594 132.332031 C 254.144531 127.441406 249.835938 125.15625 244.632812 125.207031 C 240.03125 125.261719 235.433594 128.570312 234.328125 133.011719 C 233.671875 135.695312 233.515625 138.742188 234.066406 141.449219 C 235.90625 150.4375 237.878906 159.398438 240.296875 168.257812 C 244.449219 183.578125 253.804688 193.382812 270.414062 194.960938 L 270.414062 226.839844 C 270.386719 226.839844 270.335938 226.839844 270.308594 226.839844 C 269.601562 228.914062 269.023438 231.070312 268.917969 233.277344 C 268.863281 234.777344 269.074219 236.222656 269.125 237.667969 C 269.335938 237.71875 269.519531 237.773438 269.703125 237.796875 L 269.703125 260.109375 C 264.660156 260.109375 260.058594 259.925781 255.511719 260.214844 C 254.121094 260.320312 252.804688 261.765625 251.4375 262.582031 C 252.4375 263.816406 253.199219 265.367188 254.460938 266.183594 C 255.882812 267.074219 257.71875 267.339844 259.402344 267.734375 C 276.984375 271.804688 294.671875 271.121094 312.253906 268.125 C 319.378906 266.917969 326.339844 264.605469 333.226562 262.398438 C 334.515625 261.976562 335.171875 259.664062 336.144531 258.21875 C 334.542969 257.5625 332.992188 256.640625 331.335938 256.351562 C 329.996094 256.117188 328.550781 256.746094 327.128906 256.878906 C 322.476562 257.351562 317.828125 257.773438 312.804688 258.269531 C 313.28125 253.539062 313.726562 249.125 314.171875 244.816406 C 313.804688 241.6875 314.382812 238.585938 314.515625 235.40625 C 314.671875 231.621094 314.726562 227.941406 315.511719 224.210938 C 315.539062 224.132812 315.566406 224.078125 315.59375 224 C 315.800781 220.425781 315.488281 216.878906 317.0625 214.589844 C 319.0625 211.675781 318.5625 210.125 316.300781 207.679688 C 326.445312 204.289062 334.121094 198.375 339.402344 189.730469 C 346.578125 178.035156 350.308594 165.183594 350.863281 151.488281 C 351.230469 143.105469 346.632812 137.296875 339.507812 136.484375 Z M 270.335938 183.738281 C 267.261719 182.605469 263.632812 182.132812 261.214844 180.1875 C 258.007812 177.585938 254.566406 174.195312 253.332031 170.464844 C 249.835938 159.898438 247.417969 148.964844 244.578125 138.191406 C 245.15625 137.980469 245.734375 137.769531 246.289062 137.585938 C 246.945312 139.085938 247.785156 140.554688 248.179688 142.132812 C 250.097656 149.625 251.625 157.246094 253.832031 164.65625 C 256.222656 172.699219 260.21875 179.585938 269.703125 180.871094 C 269.992188 180.925781 270.335938 181.082031 270.519531 181.292969 C 270.703125 181.503906 270.703125 181.871094 270.808594 182.160156 C 270.652344 182.660156 270.492188 183.210938 270.335938 183.738281 Z M 288.390625 155.878906 C 287.761719 188.46875 286.972656 221.082031 286.210938 253.671875 C 286.183594 254.933594 286.394531 256.300781 285.972656 257.429688 C 285.632812 258.351562 284.5 258.980469 283.714844 259.742188 C 283.03125 258.875 282.214844 258.113281 281.769531 257.140625 C 281.453125 256.484375 281.714844 255.589844 281.714844 254.800781 C 281.976562 218.085938 282.082031 181.34375 282.714844 144.628906 C 282.820312 137.664062 285 130.699219 286.339844 123.789062 C 286.523438 122.816406 287.417969 121.976562 288.46875 120.265625 C 288.417969 132.828125 288.628906 144.367188 288.390625 155.878906 Z M 300.269531 122.316406 C 305.183594 127.46875 306.761719 133.671875 306.867188 139.976562 C 307.050781 152.777344 306.523438 165.578125 306.421875 178.347656 C 306.394531 183.210938 302.371094 181.609375 300.269531 182.816406 Z M 302.898438 241.738281 C 302.503906 246.472656 301.769531 251.175781 301.503906 255.90625 C 301.320312 259.058594 299.980469 259.714844 296.800781 258.613281 C 297.511719 241.265625 298.21875 223.789062 298.957031 205.839844 C 301.425781 206.785156 303.160156 207.46875 305.449219 208.335938 C 304.605469 219.402344 303.792969 230.570312 302.898438 241.738281 Z M 339.613281 152.277344 C 338.535156 163.789062 335.515625 174.695312 328.96875 184.316406 C 324.449219 190.9375 318.378906 195.640625 310.074219 196.535156 C 308.679688 196.695312 307.128906 195.539062 305.65625 195.011719 C 306.917969 194.144531 308.074219 192.671875 309.441406 192.460938 C 319.980469 190.78125 326.472656 184.289062 329.757812 174.695312 C 332.203125 167.546875 333.570312 160.03125 335.515625 152.726562 C 335.933594 151.148438 336.878906 149.675781 337.5625 148.179688 C 338.140625 148.363281 338.695312 148.519531 339.273438 148.703125 C 339.402344 149.886719 339.746094 151.09375 339.613281 152.277344 Z M 339.613281 152.277344 " fill-opacity="1" fill-rule="nonzero"/></g><path fill="#ff914d" d="M 288.417969 120.242188 C 288.417969 132.828125 288.601562 144.367188 288.390625 155.878906 C 287.761719 188.46875 286.972656 221.082031 286.210938 253.671875 C 286.183594 254.933594 286.394531 256.300781 285.972656 257.429688 C 285.632812 258.351562 284.5 258.980469 283.714844 259.742188 C 283.03125 258.875 282.214844 258.113281 281.769531 257.140625 C 281.453125 256.484375 281.714844 255.589844 281.714844 254.800781 C 281.976562 218.085938 282.082031 181.34375 282.714844 144.628906 C 282.820312 137.664062 285 130.699219 286.339844 123.789062 C 286.5 122.789062 287.367188 121.949219 288.417969 120.242188 Z M 288.417969 120.242188 " fill-opacity="1" fill-rule="nonzero"/><path fill="#ff914d" d="M 300.269531 182.816406 C 300.269531 162.554688 300.269531 142.421875 300.269531 122.316406 C 305.183594 127.46875 306.761719 133.671875 306.867188 139.976562 C 307.050781 152.777344 306.523438 165.578125 306.421875 178.347656 C 306.367188 183.210938 302.371094 181.609375 300.269531 182.816406 Z M 300.269531 182.816406 " fill-opacity="1" fill-rule="nonzero"/><path fill="#ff914d" d="M 298.957031 205.839844 C 301.425781 206.785156 303.160156 207.46875 305.449219 208.335938 C 304.605469 219.402344 303.792969 230.570312 302.898438 241.738281 C 302.503906 246.472656 301.769531 251.175781 301.503906 255.90625 C 301.320312 259.058594 299.980469 259.714844 296.800781 258.613281 C 297.511719 241.265625 298.21875 223.816406 298.957031 205.839844 Z M 298.957031 205.839844 " fill-opacity="1" fill-rule="nonzero"/><path fill="#ff914d" d="M 339.273438 148.703125 C 339.402344 149.886719 339.71875 151.09375 339.613281 152.277344 C 338.535156 163.789062 335.515625 174.695312 328.96875 184.316406 C 324.449219 190.9375 318.378906 195.640625 310.074219 196.535156 C 308.679688 196.695312 307.128906 195.539062 305.65625 195.011719 C 306.917969 194.144531 308.074219 192.671875 309.441406 192.460938 C 319.980469 190.78125 326.472656 184.289062 329.757812 174.695312 C 332.203125 167.546875 333.570312 160.03125 335.515625 152.726562 C 335.933594 151.148438 336.878906 149.675781 337.5625 148.179688 C 338.140625 148.335938 338.71875 148.519531 339.273438 148.703125 Z M 339.273438 148.703125 " fill-opacity="1" fill-rule="nonzero"/><path fill="#ff914d" d="M 270.335938 183.738281 C 267.261719 182.605469 263.632812 182.132812 261.214844 180.1875 C 258.007812 177.585938 254.566406 174.195312 253.332031 170.464844 C 249.835938 159.898438 247.417969 148.964844 244.578125 138.191406 C 245.15625 137.980469 245.734375 137.769531 246.289062 137.585938 C 246.945312 139.085938 247.785156 140.554688 248.179688 142.132812 C 250.097656 149.625 251.625 157.246094 253.832031 164.65625 C 256.222656 172.699219 260.21875 179.585938 269.703125 180.871094 C 269.992188 180.925781 270.335938 181.082031 270.519531 181.292969 C 270.703125 181.503906 270.703125 181.871094 270.808594 182.160156 C 270.652344 182.660156 270.492188 183.210938 270.335938 183.738281 Z M 270.335938 183.738281 " fill-opacity="1" fill-rule="nonzero"/><g fill="#fffcf6" fill-opacity="1"><g transform="translate(50.249218, 183.468444)"><g><path d="M 34.40625 -25.4375 C 37.28125 -24.820312 39.585938 -23.394531 41.328125 -21.15625 C 43.078125 -18.925781 43.953125 -16.375 43.953125 -13.5 C 43.953125 -9.351562 42.5 -6.066406 39.59375 -3.640625 C 36.695312 -1.210938 32.660156 0 27.484375 0 L 4.375 0 L 4.375 -49.59375 L 26.703125 -49.59375 C 31.742188 -49.59375 35.6875 -48.4375 38.53125 -46.125 C 41.382812 -43.820312 42.8125 -40.691406 42.8125 -36.734375 C 42.8125 -33.816406 42.046875 -31.390625 40.515625 -29.453125 C 38.984375 -27.523438 36.945312 -26.1875 34.40625 -25.4375 Z M 16.46875 -29.53125 L 24.375 -29.53125 C 26.351562 -29.53125 27.875 -29.96875 28.9375 -30.84375 C 30 -31.71875 30.53125 -33 30.53125 -34.6875 C 30.53125 -36.382812 30 -37.679688 28.9375 -38.578125 C 27.875 -39.472656 26.351562 -39.921875 24.375 -39.921875 L 16.46875 -39.921875 Z M 25.359375 -9.75 C 27.390625 -9.75 28.957031 -10.207031 30.0625 -11.125 C 31.164062 -12.039062 31.71875 -13.375 31.71875 -15.125 C 31.71875 -16.863281 31.140625 -18.226562 29.984375 -19.21875 C 28.835938 -20.207031 27.25 -20.703125 25.21875 -20.703125 L 16.46875 -20.703125 L 16.46875 -9.75 Z M 25.359375 -9.75 "/></g></g></g><g fill="#fffcf6" fill-opacity="1"><g transform="translate(96.801388, 183.468444)"><g><path d="M 35.25 -8.765625 L 16.75 -8.765625 L 13.78125 0 L 1.125 0 L 19.078125 -49.59375 L 33.0625 -49.59375 L 51.015625 0 L 38.21875 0 Z M 32.15625 -18.09375 L 26 -36.25 L 19.921875 -18.09375 Z M 32.15625 -18.09375 "/></g></g></g><g fill="#fffcf6" fill-opacity="1"><g transform="translate(148.863522, 183.468444)"><g><path d="M 16.46875 -49.59375 L 16.46875 0 L 4.375 0 L 4.375 -49.59375 Z M 16.46875 -49.59375 "/></g></g></g><g fill="#fffcf6" fill-opacity="1"><g transform="translate(169.702503, 183.468444)"><g><path d="M 35.25 -8.765625 L 16.75 -8.765625 L 13.78125 0 L 1.125 0 L 19.078125 -49.59375 L 33.0625 -49.59375 L 51.015625 0 L 38.21875 0 Z M 32.15625 -18.09375 L 26 -36.25 L 19.921875 -18.09375 Z M 11.953125 -53.0625 C 13.078125 -60.03125 16.328125 -63.515625 21.703125 -63.515625 C 22.734375 -63.515625 23.632812 -63.359375 24.40625 -63.046875 C 25.1875 -62.742188 26.144531 -62.285156 27.28125 -61.671875 C 28.125 -61.203125 28.804688 -60.863281 29.328125 -60.65625 C 29.847656 -60.445312 30.390625 -60.34375 30.953125 -60.34375 C 32.691406 -60.34375 33.703125 -61.398438 33.984375 -63.515625 L 40.203125 -63.515625 C 39.078125 -56.546875 35.828125 -53.0625 30.453125 -53.0625 C 29.421875 -53.0625 28.515625 -53.210938 27.734375 -53.515625 C 26.960938 -53.828125 26.007812 -54.285156 24.875 -54.890625 C 24.03125 -55.367188 23.347656 -55.710938 22.828125 -55.921875 C 22.304688 -56.128906 21.765625 -56.234375 21.203125 -56.234375 C 19.460938 -56.234375 18.425781 -55.175781 18.09375 -53.0625 Z M 11.953125 -53.0625 "/></g></g></g><g fill="#fffcf6" fill-opacity="1"><g transform="translate(221.764636, 183.468444)"><g><path d="M 27.84375 0.5 C 23.175781 0.5 18.898438 -0.582031 15.015625 -2.75 C 11.128906 -4.914062 8.039062 -7.941406 5.75 -11.828125 C 3.46875 -15.722656 2.328125 -20.09375 2.328125 -24.9375 C 2.328125 -29.789062 3.46875 -34.148438 5.75 -38.015625 C 8.039062 -41.878906 11.128906 -44.894531 15.015625 -47.0625 C 18.898438 -49.226562 23.175781 -50.3125 27.84375 -50.3125 C 32.5 -50.3125 36.769531 -49.226562 40.65625 -47.0625 C 44.539062 -44.894531 47.601562 -41.878906 49.84375 -38.015625 C 52.082031 -34.148438 53.203125 -29.789062 53.203125 -24.9375 C 53.203125 -20.09375 52.070312 -15.722656 49.8125 -11.828125 C 47.550781 -7.941406 44.488281 -4.914062 40.625 -2.75 C 36.757812 -0.582031 32.5 0.5 27.84375 0.5 Z M 27.84375 -10.53125 C 31.800781 -10.53125 34.96875 -11.847656 37.34375 -14.484375 C 39.71875 -17.117188 40.90625 -20.601562 40.90625 -24.9375 C 40.90625 -29.320312 39.71875 -32.820312 37.34375 -35.4375 C 34.96875 -38.050781 31.800781 -39.359375 27.84375 -39.359375 C 23.832031 -39.359375 20.640625 -38.0625 18.265625 -35.46875 C 15.890625 -32.875 14.703125 -29.363281 14.703125 -24.9375 C 14.703125 -20.5625 15.890625 -17.066406 18.265625 -14.453125 C 20.640625 -11.835938 23.832031 -10.53125 27.84375 -10.53125 Z M 27.84375 -10.53125 "/></g></g></g><g fill="#fffcf6" fill-opacity="1"><g transform="translate(277.288265, 183.468444)"><g/></g></g><g clip-path="url(#296cc0a04a)"><g clip-path="url(#63ad9ed735)"><g clip-path="url(#158926664d)"><path fill="#ff914d" d="M 101.5 137.058594 L 101.082031 135.960938 L 101.328125 135.761719 C 101.679688 136.195312 102.140625 136.582031 102.367188 137.074219 C 103.277344 139.042969 104.269531 141 104.917969 143.050781 C 105.351562 144.402344 105.207031 145.90625 103.964844 146.757812 C 103.6875 144.480469 103.492188 142.246094 103.105469 140.046875 C 102.992188 139.390625 102.34375 138.828125 101.9375 138.222656 C 101.796875 137.839844 101.648438 137.445312 101.5 137.058594 Z M 101.5 137.058594 " fill-opacity="1" fill-rule="nonzero"/></g></g></g><g clip-path="url(#7736d4ed6b)"><g clip-path="url(#c4afee9f75)"><g clip-path="url(#ba0060af43)"><path fill="#ff914d" d="M 37.03125 154.214844 L 37.230469 154.917969 C 37.214844 155.261719 37.195312 155.605469 37.179688 155.953125 C 36.609375 159.394531 38.0625 162.1875 40.492188 164.992188 C 38.097656 164.554688 37.261719 163.136719 36.914062 161.496094 C 36.523438 159.65625 36.433594 157.75 36.214844 155.875 L 36.460938 154.832031 L 37.101562 154.25 Z M 37.03125 154.214844 " fill-opacity="1" fill-rule="nonzero"/></g></g></g><g clip-path="url(#bc7de76f21)"><g clip-path="url(#cff0bbdc84)"><g clip-path="url(#275c1cc154)"><path fill="#ff914d" d="M 36.460938 154.832031 L 36.214844 155.875 C 35.574219 157.945312 35.191406 159.972656 36.332031 162.023438 C 36.5 162.328125 36.242188 162.863281 36.183594 163.292969 C 35.859375 163.132812 35.390625 163.0625 35.230469 162.804688 C 34.242188 161.191406 34.8125 156.304688 36.121094 154.824219 C 36.164062 154.769531 36.34375 154.828125 36.460938 154.832031 Z M 36.460938 154.832031 " fill-opacity="1" fill-rule="nonzero"/></g></g></g><g clip-path="url(#177193b273)"><g clip-path="url(#a007409cd3)"><g clip-path="url(#e81ee168d8)"><path fill="#ff914d" d="M 101.5 137.058594 C 101.648438 137.445312 101.792969 137.832031 101.941406 138.222656 C 103.105469 140.382812 103.441406 142.609375 102.398438 144.984375 Z M 101.5 137.058594 " fill-opacity="1" fill-rule="nonzero"/></g></g></g><g clip-path="url(#f6c6e5d46b)"><g clip-path="url(#d067111150)"><g clip-path="url(#bb50d3b3d7)"><path fill="#ff914d" d="M 37.179688 155.953125 C 37.195312 155.605469 37.214844 155.261719 37.230469 154.917969 C 37.535156 155.9375 37.730469 157.007812 38.160156 157.96875 C 38.710938 159.191406 39.460938 160.320312 40.101562 161.5 C 40.273438 161.816406 40.332031 162.152344 40.277344 162.507812 C 37.789062 160.988281 37.796875 158.328125 37.179688 155.953125 Z M 37.179688 155.953125 " fill-opacity="1" fill-rule="nonzero"/></g></g></g><g clip-path="url(#dea4b99b25)"><g clip-path="url(#71f99acc2f)"><g clip-path="url(#3a67f8e3bf)"><path fill="#ff914d" d="M 38.71875 155.464844 C 37.917969 155.667969 37.175781 155.539062 36.496094 155.070312 C 36.320312 154.960938 36.1875 154.8125 36.105469 154.625 C 36.019531 154.4375 35.992188 154.242188 36.027344 154.039062 C 35.925781 153.441406 35.824219 152.84375 35.722656 152.25 C 35.445312 150.671875 35.164062 149.039062 34.945312 147.414062 C 33.953125 140.046875 34.507812 134.445312 36.742188 129.25 C 39.296875 123.316406 43.765625 118.828125 50.015625 115.910156 C 52.917969 114.546875 55.914062 113.445312 59.007812 112.609375 C 64.597656 111.101562 70.261719 110.703125 76.003906 111.414062 C 86.425781 112.738281 94.152344 118.675781 98.964844 129.070312 C 99.800781 130.820312 100.535156 132.613281 101.164062 134.445312 C 101.410156 135.199219 101.683594 136.304688 101.1875 137.21875 C 100.855469 137.808594 100.351562 138.179688 99.6875 138.324219 C 99.148438 138.449219 98.597656 138.496094 98.046875 138.460938 C 96.1875 138.386719 94.304688 138.296875 92.480469 138.203125 C 90.058594 138.078125 87.558594 137.957031 85.097656 137.882812 C 84.859375 137.878906 84.621094 137.910156 84.390625 137.972656 C 84.058594 138.0625 83.746094 138.199219 83.457031 138.390625 C 79.09375 141.363281 74.359375 143.519531 69.253906 144.863281 C 66.390625 145.617188 63.484375 146.128906 60.53125 146.394531 C 58.226562 146.609375 55.898438 146.152344 53.648438 145.707031 L 53.042969 145.59375 C 52.644531 145.496094 52.246094 145.488281 51.847656 145.574219 C 51.570312 145.652344 51.324219 145.785156 51.105469 145.972656 C 49.882812 146.941406 48.664062 147.90625 47.441406 148.875 C 45.210938 150.632812 42.910156 152.453125 40.671875 154.269531 L 40.542969 154.375 C 40.003906 154.816406 39.441406 155.273438 38.71875 155.464844 Z M 59.664062 140.296875 C 61.273438 140.160156 62.871094 139.914062 64.453125 139.566406 C 65.089844 139.410156 65.753906 139.242188 66.4375 139.0625 C 69.171875 138.335938 71.929688 137.472656 74.597656 136.636719 C 75.277344 136.425781 75.949219 136.214844 76.625 136.003906 C 73.710938 136.078125 70.847656 136.5 68.035156 137.265625 C 65.164062 138.050781 62.371094 139.0625 59.664062 140.296875 Z M 59.664062 140.296875 " fill-opacity="1" fill-rule="nonzero"/></g></g></g><g clip-path="url(#361da4a6ea)"><g clip-path="url(#0bdf44a56a)"><g clip-path="url(#d3bc10acf3)"><path fill="#ffffff" d="M 37.394531 154.554688 C 37.351562 154.566406 37.3125 154.5625 37.273438 154.542969 C 37.15625 154.492188 37.046875 154.429688 36.9375 154.363281 C 36.84375 154.300781 36.824219 154.222656 36.875 154.125 L 36.890625 154.101562 L 36.863281 153.925781 C 36.839844 153.8125 36.886719 153.746094 37 153.722656 C 37.109375 153.710938 37.175781 153.757812 37.203125 153.863281 L 37.25 154.136719 C 37.300781 154.164062 37.355469 154.191406 37.40625 154.214844 C 37.515625 154.261719 37.546875 154.339844 37.496094 154.449219 C 37.476562 154.5 37.445312 154.535156 37.394531 154.554688 Z M 37.394531 154.554688 " fill-opacity="1" fill-rule="nonzero"/></g></g></g><g clip-path="url(#45f12a1980)"><g clip-path="url(#28c7f62f22)"><g clip-path="url(#31c1a6f875)"><path fill="#ffffff" d="M 39.097656 154.398438 C 39.007812 154.40625 38.949219 154.367188 38.914062 154.285156 C 38.878906 154.203125 38.894531 154.132812 38.960938 154.074219 C 39.160156 153.949219 39.351562 153.816406 39.535156 153.667969 C 39.570312 153.617188 39.617188 153.589844 39.679688 153.585938 C 39.742188 153.585938 39.792969 153.609375 39.832031 153.65625 C 39.871094 153.707031 39.882812 153.761719 39.867188 153.820312 C 39.851562 153.882812 39.8125 153.921875 39.753906 153.945312 C 39.566406 154.101562 39.363281 154.246094 39.15625 154.375 C 39.136719 154.386719 39.121094 154.394531 39.097656 154.398438 Z M 99.460938 137.519531 C 99.351562 137.546875 99.242188 137.570312 99.128906 137.589844 C 99.035156 137.578125 98.984375 137.523438 98.96875 137.429688 C 98.957031 137.339844 98.992188 137.273438 99.078125 137.234375 C 99.179688 137.21875 99.277344 137.199219 99.375 137.175781 C 99.488281 137.144531 99.601562 137.105469 99.707031 137.050781 C 99.796875 137.035156 99.863281 137.070312 99.90625 137.152344 C 99.949219 137.234375 99.933594 137.304688 99.871094 137.367188 C 99.738281 137.429688 99.601562 137.476562 99.460938 137.519531 Z M 41.074219 152.855469 C 40.988281 152.867188 40.921875 152.832031 40.882812 152.753906 C 40.84375 152.675781 40.855469 152.605469 40.914062 152.542969 L 41.472656 152.09375 C 41.558594 152.058594 41.632812 152.074219 41.691406 152.148438 C 41.75 152.222656 41.753906 152.296875 41.699219 152.375 L 41.140625 152.824219 C 41.121094 152.839844 41.097656 152.847656 41.074219 152.855469 Z M 97.363281 137.59375 C 97.34375 137.601562 97.328125 137.605469 97.308594 137.609375 L 96.59375 137.578125 C 96.480469 137.566406 96.421875 137.503906 96.421875 137.390625 C 96.433594 137.277344 96.496094 137.21875 96.609375 137.21875 L 97.324219 137.25 C 97.410156 137.269531 97.460938 137.324219 97.46875 137.414062 C 97.480469 137.5 97.445312 137.5625 97.363281 137.601562 Z M 43.03125 151.289062 C 42.945312 151.296875 42.882812 151.261719 42.84375 151.1875 C 42.804688 151.109375 42.816406 151.039062 42.871094 150.976562 L 43.433594 150.53125 C 43.519531 150.496094 43.589844 150.515625 43.648438 150.585938 C 43.707031 150.660156 43.707031 150.734375 43.65625 150.808594 L 43.09375 151.253906 C 43.074219 151.269531 43.054688 151.28125 43.03125 151.289062 Z M 94.859375 137.476562 C 94.84375 137.484375 94.828125 137.488281 94.808594 137.492188 L 94.09375 137.457031 C 94.03125 137.472656 93.976562 137.460938 93.929688 137.421875 C 93.882812 137.382812 93.859375 137.328125 93.863281 137.265625 C 93.863281 137.203125 93.890625 137.15625 93.945312 137.121094 C 93.996094 137.085938 94.050781 137.078125 94.109375 137.101562 L 94.824219 137.136719 C 94.910156 137.15625 94.960938 137.207031 94.96875 137.296875 C 94.980469 137.386719 94.941406 137.449219 94.863281 137.484375 Z M 100.46875 135.847656 L 100.449219 135.855469 C 100.335938 135.867188 100.265625 135.8125 100.246094 135.703125 C 100.222656 135.53125 100.191406 135.363281 100.144531 135.195312 C 100.132812 135.144531 100.117188 135.089844 100.101562 135.035156 C 100.074219 134.925781 100.113281 134.851562 100.222656 134.8125 C 100.335938 134.78125 100.410156 134.824219 100.449219 134.933594 C 100.464844 134.992188 100.476562 135.046875 100.492188 135.101562 C 100.542969 135.285156 100.578125 135.464844 100.605469 135.652344 C 100.613281 135.757812 100.566406 135.824219 100.464844 135.851562 Z M 68.890625 144.101562 C 68.65625 144.160156 68.425781 144.222656 68.195312 144.285156 C 68.101562 144.28125 68.042969 144.234375 68.019531 144.144531 C 67.996094 144.054688 68.023438 143.988281 68.101562 143.9375 C 68.332031 143.878906 68.5625 143.816406 68.792969 143.753906 C 68.886719 143.757812 68.945312 143.804688 68.96875 143.894531 C 68.992188 143.984375 68.964844 144.054688 68.882812 144.101562 Z M 70.613281 143.613281 C 70.519531 143.609375 70.460938 143.566406 70.4375 143.476562 C 70.414062 143.386719 70.441406 143.316406 70.519531 143.269531 C 70.75 143.207031 70.976562 143.128906 71.203125 143.054688 C 71.316406 143.015625 71.390625 143.054688 71.425781 143.171875 C 71.457031 143.28125 71.417969 143.355469 71.308594 143.394531 L 70.625 143.609375 Z M 66.449219 144.671875 L 66.4375 144.675781 L 65.730469 144.816406 C 65.621094 144.835938 65.550781 144.789062 65.523438 144.679688 C 65.507812 144.570312 65.550781 144.5 65.660156 144.472656 C 65.894531 144.425781 66.128906 144.382812 66.363281 144.332031 C 66.476562 144.304688 66.546875 144.351562 66.570312 144.46875 C 66.585938 144.574219 66.546875 144.640625 66.445312 144.675781 Z M 72.988281 142.820312 C 72.898438 142.820312 72.839844 142.777344 72.8125 142.691406 C 72.785156 142.601562 72.808594 142.535156 72.882812 142.480469 C 73.109375 142.402344 73.328125 142.316406 73.550781 142.234375 C 73.660156 142.195312 73.738281 142.230469 73.785156 142.335938 C 73.820312 142.445312 73.785156 142.523438 73.679688 142.566406 L 73.007812 142.816406 Z M 63.984375 145.125 L 63.964844 145.128906 L 63.253906 145.238281 C 63.199219 145.261719 63.140625 145.261719 63.085938 145.230469 C 63.03125 145.203125 63 145.15625 62.992188 145.09375 C 62.984375 145.03125 63 144.980469 63.046875 144.933594 C 63.089844 144.890625 63.144531 144.875 63.207031 144.882812 C 63.441406 144.851562 63.675781 144.816406 63.910156 144.777344 C 64.003906 144.785156 64.058594 144.835938 64.078125 144.925781 C 64.09375 145.015625 64.066406 145.082031 63.984375 145.125 Z M 36.78125 152.257812 L 36.765625 152.261719 C 36.65625 152.273438 36.585938 152.230469 36.558594 152.121094 L 36.4375 151.417969 C 36.449219 151.324219 36.5 151.269531 36.589844 151.253906 C 36.683594 151.238281 36.75 151.273438 36.789062 151.355469 L 36.910156 152.0625 C 36.921875 152.164062 36.875 152.230469 36.777344 152.257812 Z M 75.320312 141.902344 C 75.230469 141.90625 75.167969 141.863281 75.136719 141.777344 C 75.109375 141.6875 75.128906 141.617188 75.207031 141.5625 C 75.425781 141.472656 75.644531 141.375 75.859375 141.277344 C 75.90625 141.238281 75.960938 141.222656 76.023438 141.238281 C 76.082031 141.25 76.125 141.285156 76.152344 141.34375 C 76.175781 141.398438 76.175781 141.457031 76.144531 141.511719 C 76.113281 141.5625 76.066406 141.597656 76.007812 141.605469 C 75.785156 141.703125 75.566406 141.796875 75.347656 141.894531 Z M 92.359375 137.355469 C 92.339844 137.363281 92.324219 137.367188 92.304688 137.367188 L 91.589844 137.332031 C 91.527344 137.347656 91.472656 137.335938 91.425781 137.296875 C 91.378906 137.257812 91.355469 137.207031 91.359375 137.144531 C 91.363281 137.082031 91.390625 137.03125 91.441406 136.996094 C 91.492188 136.964844 91.550781 136.957031 91.609375 136.976562 L 92.324219 137.015625 C 92.410156 137.035156 92.457031 137.085938 92.464844 137.175781 C 92.476562 137.265625 92.441406 137.328125 92.359375 137.363281 Z M 61.5 145.464844 L 61.472656 145.472656 C 61.234375 145.5 60.996094 145.523438 60.757812 145.546875 C 60.644531 145.554688 60.578125 145.5 60.5625 145.386719 C 60.554688 145.273438 60.609375 145.207031 60.722656 145.191406 C 60.960938 145.171875 61.195312 145.144531 61.433594 145.117188 C 61.523438 145.128906 61.578125 145.179688 61.597656 145.269531 C 61.613281 145.359375 61.582031 145.425781 61.5 145.46875 Z M 44.996094 149.738281 C 44.921875 149.753906 44.859375 149.734375 44.8125 149.675781 C 44.742188 149.585938 44.753906 149.5 44.839844 149.425781 L 45.398438 148.972656 C 45.433594 148.921875 45.484375 148.894531 45.546875 148.890625 C 45.609375 148.890625 45.660156 148.914062 45.699219 148.964844 C 45.738281 149.011719 45.75 149.066406 45.734375 149.128906 C 45.714844 149.1875 45.679688 149.230469 45.621094 149.253906 L 45.058594 149.695312 C 45.039062 149.710938 45.019531 149.722656 44.996094 149.730469 Z M 77.597656 140.859375 C 77.503906 140.882812 77.4375 140.851562 77.390625 140.765625 C 77.34375 140.664062 77.371094 140.582031 77.472656 140.527344 C 77.683594 140.421875 77.898438 140.316406 78.109375 140.207031 C 78.199219 140.191406 78.265625 140.222656 78.308594 140.304688 C 78.351562 140.386719 78.339844 140.460938 78.273438 140.523438 C 78.058594 140.632812 77.84375 140.742188 77.628906 140.847656 Z M 58.996094 145.609375 C 58.980469 145.617188 58.964844 145.621094 58.949219 145.625 C 58.707031 145.617188 58.464844 145.605469 58.222656 145.589844 C 58.109375 145.574219 58.054688 145.511719 58.058594 145.398438 C 58.066406 145.277344 58.128906 145.222656 58.25 145.234375 C 58.488281 145.25 58.722656 145.261719 58.957031 145.269531 C 59.070312 145.277344 59.128906 145.335938 59.132812 145.453125 C 59.121094 145.53125 59.074219 145.582031 58.996094 145.605469 Z M 89.851562 137.242188 C 89.835938 137.246094 89.816406 137.253906 89.796875 137.253906 L 89.085938 137.222656 C 88.996094 137.191406 88.957031 137.128906 88.960938 137.035156 C 88.964844 136.945312 89.011719 136.886719 89.097656 136.863281 L 89.816406 136.898438 C 89.902344 136.917969 89.949219 136.972656 89.960938 137.058594 C 89.96875 137.148438 89.933594 137.210938 89.851562 137.246094 Z M 79.808594 139.683594 C 79.71875 139.6875 79.65625 139.648438 79.625 139.566406 C 79.589844 139.484375 79.609375 139.414062 79.675781 139.355469 C 79.882812 139.238281 80.089844 139.117188 80.292969 139 C 80.335938 138.953125 80.386719 138.933594 80.449219 138.9375 C 80.511719 138.945312 80.558594 138.976562 80.589844 139.03125 C 80.625 139.082031 80.625 139.140625 80.601562 139.195312 C 80.578125 139.253906 80.535156 139.289062 80.472656 139.304688 C 80.265625 139.425781 80.058594 139.546875 79.851562 139.664062 C 79.835938 139.667969 79.820312 139.671875 79.804688 139.675781 Z M 46.960938 148.171875 C 46.875 148.183594 46.8125 148.148438 46.773438 148.070312 C 46.734375 147.992188 46.746094 147.921875 46.804688 147.859375 L 47.367188 147.417969 C 47.453125 147.382812 47.523438 147.402344 47.582031 147.472656 C 47.640625 147.546875 47.640625 147.621094 47.585938 147.695312 L 47.027344 148.140625 C 47.007812 148.15625 46.984375 148.167969 46.960938 148.171875 Z M 56.5 145.359375 C 56.476562 145.367188 56.453125 145.371094 56.425781 145.363281 C 56.191406 145.328125 55.957031 145.296875 55.71875 145.25 C 55.632812 145.207031 55.601562 145.140625 55.617188 145.050781 C 55.632812 144.960938 55.6875 144.910156 55.777344 144.898438 C 56.011719 144.9375 56.246094 144.976562 56.480469 145.011719 C 56.5625 145.039062 56.605469 145.09375 56.609375 145.179688 C 56.617188 145.265625 56.578125 145.324219 56.5 145.359375 Z M 87.34375 137.121094 C 87.328125 137.128906 87.3125 137.132812 87.292969 137.132812 L 86.582031 137.097656 C 86.46875 137.085938 86.414062 137.027344 86.414062 136.914062 C 86.421875 136.796875 86.484375 136.742188 86.597656 136.742188 L 87.3125 136.769531 C 87.398438 136.789062 87.449219 136.84375 87.457031 136.929688 C 87.46875 137.019531 87.433594 137.082031 87.351562 137.121094 Z M 81.949219 138.375 C 81.867188 138.394531 81.800781 138.371094 81.753906 138.296875 C 81.695312 138.199219 81.714844 138.117188 81.808594 138.050781 L 82.402344 137.660156 C 82.441406 137.613281 82.492188 137.589844 82.554688 137.59375 C 82.617188 137.597656 82.667969 137.625 82.703125 137.675781 C 82.738281 137.726562 82.742188 137.78125 82.722656 137.839844 C 82.703125 137.902344 82.660156 137.9375 82.601562 137.957031 C 82.402344 138.089844 82.199219 138.222656 82 138.351562 C 81.984375 138.363281 81.96875 138.371094 81.949219 138.375 Z M 99.722656 133.460938 C 99.621094 133.480469 99.550781 133.445312 99.511719 133.351562 C 99.425781 133.128906 99.339844 132.90625 99.25 132.683594 C 99.242188 132.59375 99.28125 132.53125 99.367188 132.496094 C 99.453125 132.460938 99.523438 132.480469 99.582031 132.550781 C 99.671875 132.773438 99.757812 133 99.84375 133.222656 C 99.878906 133.332031 99.847656 133.410156 99.738281 133.453125 Z M 48.933594 146.617188 C 48.859375 146.632812 48.796875 146.613281 48.746094 146.554688 C 48.679688 146.464844 48.6875 146.378906 48.773438 146.304688 L 49.335938 145.859375 C 49.421875 145.824219 49.496094 145.84375 49.554688 145.914062 C 49.613281 145.988281 49.613281 146.0625 49.558594 146.140625 L 48.996094 146.582031 C 48.976562 146.601562 48.953125 146.613281 48.929688 146.621094 Z M 84.835938 137.050781 L 84.804688 137.0625 C 84.589844 137.078125 84.375 137.117188 84.167969 137.171875 C 84.046875 137.210938 83.96875 137.171875 83.933594 137.050781 C 83.886719 136.9375 83.921875 136.867188 84.039062 136.832031 L 84.074219 136.820312 C 84.304688 136.757812 84.539062 136.71875 84.777344 136.699219 C 84.890625 136.695312 84.953125 136.75 84.96875 136.863281 C 84.972656 136.960938 84.929688 137.023438 84.835938 137.050781 Z M 36.351562 149.785156 L 36.335938 149.789062 C 36.222656 149.804688 36.152344 149.753906 36.128906 149.644531 L 36.015625 148.933594 C 36.003906 148.820312 36.050781 148.753906 36.164062 148.730469 C 36.28125 148.714844 36.347656 148.765625 36.371094 148.878906 C 36.40625 149.113281 36.441406 149.347656 36.484375 149.585938 C 36.496094 149.6875 36.453125 149.753906 36.355469 149.785156 Z M 54.03125 144.917969 C 54.003906 144.925781 53.976562 144.925781 53.949219 144.921875 L 53.246094 144.785156 C 53.136719 144.757812 53.089844 144.6875 53.105469 144.574219 C 53.132812 144.464844 53.203125 144.414062 53.316406 144.433594 L 54.019531 144.570312 C 54.097656 144.597656 54.140625 144.65625 54.144531 144.742188 C 54.148438 144.828125 54.109375 144.886719 54.03125 144.917969 Z M 50.902344 145.085938 C 50.816406 145.09375 50.753906 145.054688 50.71875 144.972656 C 50.683594 144.890625 50.699219 144.820312 50.765625 144.757812 C 50.980469 144.625 51.210938 144.523438 51.453125 144.449219 C 51.546875 144.449219 51.605469 144.492188 51.632812 144.582031 C 51.660156 144.671875 51.636719 144.742188 51.554688 144.792969 C 51.339844 144.855469 51.136719 144.949219 50.945312 145.066406 C 50.933594 145.074219 50.921875 145.078125 50.90625 145.082031 Z M 98.757812 131.144531 C 98.660156 131.171875 98.585938 131.140625 98.539062 131.046875 C 98.445312 130.828125 98.347656 130.613281 98.25 130.394531 C 98.207031 130.347656 98.195312 130.292969 98.207031 130.230469 C 98.222656 130.171875 98.257812 130.128906 98.3125 130.101562 C 98.371094 130.078125 98.425781 130.078125 98.480469 130.109375 C 98.535156 130.140625 98.566406 130.1875 98.574219 130.246094 C 98.671875 130.464844 98.769531 130.683594 98.867188 130.90625 C 98.917969 131.011719 98.886719 131.089844 98.777344 131.136719 Z M 35.992188 147.304688 L 35.96875 147.3125 C 35.855469 147.320312 35.789062 147.269531 35.769531 147.15625 C 35.738281 146.917969 35.707031 146.679688 35.679688 146.445312 C 35.664062 146.324219 35.714844 146.257812 35.835938 146.246094 C 35.949219 146.238281 36.015625 146.289062 36.03125 146.402344 C 36.0625 146.636719 36.089844 146.875 36.121094 147.109375 C 36.132812 147.214844 36.085938 147.28125 35.984375 147.308594 Z M 97.710938 128.867188 C 97.621094 128.890625 97.550781 128.859375 97.507812 128.773438 C 97.402344 128.558594 97.296875 128.347656 97.1875 128.136719 C 97.144531 128.089844 97.128906 128.039062 97.136719 127.976562 C 97.148438 127.914062 97.183594 127.867188 97.238281 127.839844 C 97.292969 127.8125 97.351562 127.8125 97.40625 127.839844 C 97.460938 127.867188 97.496094 127.914062 97.503906 127.972656 C 97.613281 128.1875 97.722656 128.402344 97.828125 128.617188 C 97.871094 128.722656 97.84375 128.800781 97.746094 128.855469 C 97.734375 128.859375 97.722656 128.863281 97.710938 128.867188 Z M 35.710938 144.816406 L 35.679688 144.824219 C 35.566406 144.828125 35.5 144.773438 35.488281 144.660156 C 35.464844 144.421875 35.445312 144.183594 35.429688 143.945312 C 35.449219 143.855469 35.503906 143.804688 35.597656 143.800781 C 35.6875 143.792969 35.75 143.832031 35.785156 143.917969 C 35.804688 144.15625 35.820312 144.390625 35.84375 144.628906 C 35.847656 144.726562 35.800781 144.789062 35.710938 144.816406 Z M 96.542969 126.652344 C 96.457031 126.671875 96.386719 126.644531 96.339844 126.566406 C 96.226562 126.359375 96.105469 126.15625 95.984375 125.949219 C 95.964844 125.859375 95.992188 125.792969 96.070312 125.746094 C 96.148438 125.699219 96.222656 125.707031 96.292969 125.769531 C 96.414062 125.972656 96.535156 126.183594 96.648438 126.390625 C 96.703125 126.496094 96.679688 126.574219 96.582031 126.636719 C 96.570312 126.644531 96.558594 126.648438 96.542969 126.652344 Z M 35.554688 142.316406 C 35.539062 142.320312 35.527344 142.324219 35.515625 142.328125 C 35.398438 142.328125 35.335938 142.269531 35.328125 142.15625 C 35.324219 141.914062 35.316406 141.675781 35.3125 141.4375 C 35.296875 141.375 35.304688 141.320312 35.339844 141.273438 C 35.378906 141.222656 35.425781 141.195312 35.488281 141.195312 C 35.550781 141.195312 35.601562 141.21875 35.640625 141.269531 C 35.675781 141.316406 35.6875 141.371094 35.671875 141.433594 C 35.675781 141.667969 35.679688 141.90625 35.6875 142.144531 C 35.683594 142.234375 35.640625 142.292969 35.554688 142.316406 Z M 95.226562 124.519531 C 95.144531 124.539062 95.082031 124.515625 95.03125 124.445312 C 94.902344 124.246094 94.765625 124.050781 94.628906 123.859375 C 94.582031 123.820312 94.558594 123.769531 94.558594 123.707031 C 94.5625 123.644531 94.585938 123.59375 94.640625 123.558594 C 94.691406 123.523438 94.746094 123.515625 94.804688 123.535156 C 94.863281 123.554688 94.902344 123.59375 94.921875 123.65625 C 95.058594 123.847656 95.195312 124.046875 95.328125 124.246094 C 95.386719 124.34375 95.371094 124.429688 95.28125 124.496094 C 95.265625 124.507812 95.246094 124.515625 95.226562 124.519531 Z M 35.566406 139.808594 C 35.550781 139.816406 35.53125 139.820312 35.515625 139.820312 C 35.398438 139.8125 35.34375 139.75 35.34375 139.636719 C 35.351562 139.398438 35.363281 139.15625 35.375 138.917969 C 35.410156 138.832031 35.46875 138.789062 35.5625 138.796875 C 35.65625 138.800781 35.710938 138.847656 35.734375 138.9375 C 35.71875 139.175781 35.707031 139.410156 35.699219 139.648438 C 35.691406 139.734375 35.644531 139.785156 35.566406 139.808594 Z M 93.753906 122.492188 C 93.679688 122.511719 93.617188 122.488281 93.566406 122.429688 C 93.421875 122.242188 93.277344 122.058594 93.121094 121.875 C 93.066406 121.84375 93.039062 121.792969 93.035156 121.730469 C 93.03125 121.667969 93.054688 121.617188 93.101562 121.578125 C 93.148438 121.535156 93.203125 121.523438 93.265625 121.539062 C 93.328125 121.554688 93.371094 121.589844 93.394531 121.648438 C 93.546875 121.835938 93.699219 122.019531 93.847656 122.210938 C 93.914062 122.300781 93.90625 122.386719 93.820312 122.460938 C 93.800781 122.476562 93.777344 122.484375 93.753906 122.492188 Z M 35.753906 137.3125 C 35.730469 137.316406 35.710938 137.316406 35.6875 137.316406 C 35.574219 137.296875 35.523438 137.230469 35.53125 137.117188 C 35.558594 136.878906 35.597656 136.636719 35.621094 136.402344 C 35.660156 136.316406 35.726562 136.28125 35.816406 136.292969 C 35.910156 136.308594 35.964844 136.359375 35.976562 136.453125 C 35.941406 136.6875 35.910156 136.921875 35.882812 137.160156 C 35.875 137.238281 35.828125 137.289062 35.753906 137.3125 Z M 92.117188 120.597656 C 92.046875 120.617188 91.988281 120.601562 91.941406 120.546875 C 91.777344 120.375 91.613281 120.207031 91.445312 120.035156 C 91.390625 120.007812 91.359375 119.960938 91.351562 119.898438 C 91.339844 119.835938 91.359375 119.785156 91.402344 119.738281 C 91.449219 119.695312 91.5 119.679688 91.5625 119.6875 C 91.625 119.699219 91.671875 119.730469 91.699219 119.785156 C 91.867188 119.957031 92.035156 120.128906 92.199219 120.304688 C 92.277344 120.390625 92.273438 120.472656 92.191406 120.554688 C 92.171875 120.574219 92.144531 120.589844 92.117188 120.597656 Z M 36.148438 134.835938 C 36.125 134.84375 36.097656 134.84375 36.070312 134.835938 C 35.957031 134.808594 35.910156 134.738281 35.929688 134.625 C 35.976562 134.390625 36.03125 134.15625 36.085938 133.921875 C 36.132812 133.84375 36.203125 133.816406 36.292969 133.839844 C 36.382812 133.863281 36.425781 133.921875 36.429688 134.011719 C 36.375 134.246094 36.324219 134.476562 36.277344 134.710938 C 36.257812 134.773438 36.214844 134.816406 36.148438 134.835938 Z M 90.3125 118.851562 C 90.253906 118.867188 90.199219 118.855469 90.148438 118.816406 C 89.972656 118.660156 89.789062 118.503906 89.609375 118.351562 C 89.523438 118.277344 89.515625 118.191406 89.585938 118.101562 C 89.660156 118.015625 89.746094 118.007812 89.835938 118.078125 C 90.023438 118.230469 90.203125 118.386719 90.386719 118.546875 C 90.46875 118.625 90.472656 118.710938 90.402344 118.796875 C 90.378906 118.824219 90.347656 118.84375 90.3125 118.851562 Z M 36.773438 132.40625 C 36.707031 132.425781 36.648438 132.40625 36.597656 132.359375 C 36.550781 132.308594 36.539062 132.25 36.558594 132.179688 C 36.628906 131.953125 36.703125 131.722656 36.777344 131.496094 C 36.820312 131.386719 36.894531 131.351562 37.003906 131.382812 C 37.109375 131.425781 37.148438 131.5 37.117188 131.609375 C 37.039062 131.835938 36.96875 132.0625 36.898438 132.285156 C 36.878906 132.347656 36.839844 132.390625 36.773438 132.40625 Z M 88.351562 117.292969 C 88.296875 117.308594 88.25 117.296875 88.203125 117.265625 C 88.011719 117.125 87.8125 116.984375 87.621094 116.859375 C 87.5625 116.84375 87.519531 116.804688 87.5 116.746094 C 87.476562 116.6875 87.484375 116.628906 87.519531 116.578125 C 87.554688 116.527344 87.605469 116.5 87.667969 116.496094 C 87.730469 116.492188 87.78125 116.519531 87.820312 116.566406 C 88.019531 116.707031 88.214844 116.835938 88.410156 116.976562 C 88.5 117.046875 88.515625 117.128906 88.453125 117.226562 C 88.425781 117.261719 88.394531 117.285156 88.351562 117.296875 Z M 37.625 130.050781 C 37.585938 130.058594 37.546875 130.058594 37.511719 130.042969 C 37.40625 129.996094 37.375 129.917969 37.414062 129.808594 L 37.515625 129.570312 C 37.578125 129.429688 37.632812 129.289062 37.703125 129.148438 C 37.761719 129.078125 37.835938 129.0625 37.917969 129.101562 C 38.003906 129.136719 38.039062 129.203125 38.027344 129.292969 C 37.964844 129.429688 37.90625 129.570312 37.84375 129.710938 L 37.742188 129.945312 C 37.71875 130 37.679688 130.035156 37.625 130.050781 Z M 86.246094 115.941406 C 86.199219 115.953125 86.152344 115.949219 86.113281 115.921875 C 85.90625 115.804688 85.699219 115.6875 85.488281 115.578125 C 85.390625 115.519531 85.367188 115.4375 85.417969 115.335938 C 85.476562 115.238281 85.558594 115.21875 85.660156 115.273438 C 85.871094 115.386719 86.082031 115.503906 86.292969 115.621094 C 86.386719 115.683594 86.410156 115.765625 86.355469 115.867188 C 86.328125 115.90625 86.292969 115.929688 86.246094 115.941406 Z M 38.710938 127.785156 C 38.664062 127.796875 38.621094 127.792969 38.582031 127.769531 C 38.476562 127.710938 38.453125 127.628906 38.515625 127.527344 C 38.628906 127.3125 38.746094 127.105469 38.867188 126.898438 C 38.933594 126.832031 39.007812 126.824219 39.089844 126.871094 C 39.167969 126.917969 39.199219 126.984375 39.175781 127.074219 C 39.058594 127.28125 38.945312 127.488281 38.828125 127.695312 C 38.800781 127.746094 38.757812 127.777344 38.703125 127.789062 Z M 84.015625 114.804688 C 83.976562 114.8125 83.9375 114.808594 83.898438 114.792969 C 83.679688 114.699219 83.460938 114.601562 83.246094 114.511719 C 83.140625 114.464844 83.109375 114.386719 83.148438 114.28125 C 83.195312 114.175781 83.273438 114.144531 83.382812 114.183594 C 83.601562 114.277344 83.820312 114.371094 84.039062 114.46875 C 84.105469 114.507812 84.136719 114.566406 84.128906 114.644531 C 84.121094 114.722656 84.082031 114.777344 84.007812 114.804688 Z M 40.003906 125.644531 C 39.925781 125.660156 39.867188 125.632812 39.820312 125.570312 C 39.777344 125.507812 39.773438 125.441406 39.808594 125.375 C 39.949219 125.175781 40.089844 124.976562 40.230469 124.785156 C 40.304688 124.730469 40.378906 124.730469 40.453125 124.785156 C 40.527344 124.835938 40.550781 124.910156 40.519531 124.996094 C 40.375 125.183594 40.234375 125.378906 40.109375 125.574219 C 40.085938 125.613281 40.050781 125.636719 40.003906 125.644531 Z M 81.683594 113.894531 C 81.648438 113.90625 81.613281 113.902344 81.578125 113.890625 C 81.355469 113.824219 81.128906 113.75 80.902344 113.671875 C 80.839844 113.671875 80.789062 113.648438 80.75 113.597656 C 80.710938 113.546875 80.703125 113.492188 80.71875 113.433594 C 80.738281 113.371094 80.777344 113.332031 80.835938 113.3125 C 80.898438 113.289062 80.953125 113.296875 81.003906 113.332031 C 81.234375 113.40625 81.464844 113.480469 81.691406 113.554688 C 81.765625 113.589844 81.800781 113.644531 81.796875 113.726562 C 81.796875 113.808594 81.757812 113.867188 81.679688 113.894531 Z M 41.523438 123.660156 C 41.460938 123.671875 41.40625 123.660156 41.359375 123.621094 C 41.277344 123.542969 41.269531 123.460938 41.339844 123.371094 C 41.496094 123.1875 41.65625 123.007812 41.816406 122.828125 C 41.84375 122.769531 41.886719 122.734375 41.949219 122.722656 C 42.011719 122.710938 42.066406 122.726562 42.113281 122.769531 C 42.160156 122.816406 42.179688 122.867188 42.171875 122.929688 C 42.160156 122.996094 42.128906 123.042969 42.074219 123.070312 C 41.914062 123.246094 41.757812 123.421875 41.605469 123.605469 C 41.582031 123.628906 41.554688 123.648438 41.523438 123.660156 Z M 79.269531 113.199219 C 79.238281 113.207031 79.210938 113.207031 79.179688 113.199219 C 78.953125 113.144531 78.722656 113.09375 78.488281 113.042969 C 78.40625 113 78.375 112.933594 78.394531 112.839844 C 78.414062 112.75 78.46875 112.703125 78.5625 112.695312 C 78.800781 112.746094 79.035156 112.800781 79.265625 112.855469 C 79.34375 112.886719 79.382812 112.941406 79.382812 113.027344 C 79.386719 113.109375 79.347656 113.167969 79.269531 113.199219 Z M 43.242188 121.839844 C 43.175781 121.859375 43.117188 121.839844 43.066406 121.792969 C 42.992188 121.707031 42.992188 121.621094 43.074219 121.539062 C 43.25 121.375 43.425781 121.210938 43.605469 121.050781 C 43.6875 121.011719 43.761719 121.027344 43.824219 121.09375 C 43.886719 121.164062 43.890625 121.238281 43.84375 121.316406 C 43.664062 121.476562 43.488281 121.636719 43.320312 121.800781 C 43.296875 121.820312 43.273438 121.832031 43.246094 121.839844 Z M 76.8125 112.71875 C 76.785156 112.722656 76.761719 112.722656 76.738281 112.722656 C 76.503906 112.683594 76.269531 112.652344 76.03125 112.621094 C 75.96875 112.628906 75.917969 112.613281 75.875 112.566406 C 75.828125 112.523438 75.8125 112.472656 75.820312 112.410156 C 75.828125 112.347656 75.859375 112.300781 75.914062 112.273438 C 75.96875 112.242188 76.023438 112.238281 76.082031 112.265625 C 76.320312 112.296875 76.554688 112.332031 76.792969 112.367188 C 76.90625 112.390625 76.957031 112.457031 76.941406 112.570312 C 76.929688 112.644531 76.886719 112.695312 76.816406 112.714844 Z M 45.148438 120.214844 C 45.0625 120.222656 45 120.1875 44.960938 120.109375 C 44.921875 120.03125 44.933594 119.964844 44.992188 119.898438 C 45.183594 119.753906 45.375 119.605469 45.570312 119.46875 C 45.667969 119.398438 45.75 119.410156 45.820312 119.507812 C 45.882812 119.601562 45.871094 119.683594 45.78125 119.757812 C 45.589844 119.894531 45.398438 120.039062 45.210938 120.183594 C 45.191406 120.195312 45.171875 120.207031 45.152344 120.210938 Z M 74.320312 112.417969 C 74.300781 112.425781 74.28125 112.425781 74.261719 112.421875 C 74.023438 112.402344 73.785156 112.382812 73.546875 112.367188 C 73.433594 112.355469 73.378906 112.289062 73.382812 112.175781 C 73.390625 112.058594 73.453125 112.003906 73.574219 112.011719 C 73.8125 112.027344 74.050781 112.046875 74.292969 112.066406 C 74.378906 112.089844 74.421875 112.144531 74.429688 112.234375 C 74.4375 112.320312 74.402344 112.382812 74.320312 112.417969 Z M 71.820312 112.277344 C 71.808594 112.28125 71.789062 112.285156 71.773438 112.289062 C 71.535156 112.28125 71.296875 112.277344 71.0625 112.273438 C 70.972656 112.246094 70.925781 112.1875 70.929688 112.09375 C 70.929688 112 70.972656 111.941406 71.0625 111.917969 C 71.304688 111.917969 71.542969 111.921875 71.785156 111.929688 C 71.898438 111.941406 71.957031 112 71.957031 112.113281 C 71.949219 112.199219 71.902344 112.253906 71.820312 112.277344 Z M 47.207031 118.785156 C 47.121094 118.792969 47.054688 118.757812 47.019531 118.671875 C 46.984375 118.589844 47 118.519531 47.070312 118.460938 C 47.273438 118.332031 47.476562 118.207031 47.683594 118.085938 C 47.726562 118.039062 47.777344 118.019531 47.839844 118.023438 C 47.902344 118.03125 47.949219 118.0625 47.980469 118.113281 C 48.011719 118.167969 48.015625 118.222656 47.992188 118.28125 C 47.96875 118.339844 47.925781 118.375 47.867188 118.390625 C 47.660156 118.511719 47.457031 118.636719 47.257812 118.761719 C 47.242188 118.769531 47.226562 118.777344 47.207031 118.78125 Z M 69.316406 112.277344 C 69.300781 112.28125 69.289062 112.285156 69.277344 112.289062 C 69.039062 112.292969 68.800781 112.304688 68.5625 112.316406 C 68.472656 112.292969 68.425781 112.234375 68.421875 112.144531 C 68.417969 112.050781 68.460938 111.988281 68.546875 111.957031 L 69.265625 111.929688 C 69.378906 111.929688 69.441406 111.988281 69.449219 112.101562 C 69.445312 112.191406 69.398438 112.25 69.316406 112.273438 Z M 49.394531 117.539062 C 49.304688 117.542969 49.246094 117.5 49.214844 117.417969 C 49.179688 117.332031 49.199219 117.261719 49.269531 117.207031 C 49.480469 117.097656 49.699219 116.988281 49.914062 116.882812 C 50.003906 116.867188 50.070312 116.902344 50.113281 116.984375 C 50.152344 117.066406 50.136719 117.140625 50.070312 117.203125 C 49.855469 117.308594 49.644531 117.414062 49.433594 117.523438 Z M 51.65625 116.476562 C 51.5625 116.480469 51.503906 116.441406 51.472656 116.351562 C 51.441406 116.265625 51.464844 116.195312 51.539062 116.140625 C 51.757812 116.042969 51.976562 115.949219 52.199219 115.855469 C 52.289062 115.84375 52.355469 115.882812 52.390625 115.96875 C 52.425781 116.054688 52.410156 116.125 52.335938 116.183594 L 51.683594 116.46875 Z M 66.816406 112.433594 L 66.785156 112.441406 C 66.546875 112.464844 66.3125 112.484375 66.074219 112.511719 C 65.984375 112.496094 65.933594 112.441406 65.921875 112.347656 C 65.910156 112.253906 65.949219 112.191406 66.035156 112.15625 C 66.277344 112.128906 66.515625 112.109375 66.753906 112.085938 C 66.867188 112.082031 66.929688 112.136719 66.945312 112.246094 C 66.945312 112.339844 66.902344 112.398438 66.8125 112.425781 Z M 53.972656 115.519531 C 53.878906 115.519531 53.820312 115.476562 53.792969 115.386719 C 53.761719 115.300781 53.789062 115.230469 53.863281 115.179688 C 54.085938 115.09375 54.308594 115.003906 54.53125 114.921875 C 54.582031 114.886719 54.636719 114.875 54.699219 114.890625 C 54.757812 114.90625 54.800781 114.945312 54.820312 115.003906 C 54.84375 115.0625 54.835938 115.121094 54.804688 115.171875 C 54.769531 115.222656 54.71875 115.253906 54.65625 115.257812 L 53.992188 115.511719 Z M 64.324219 112.726562 L 64.304688 112.730469 L 63.601562 112.839844 C 63.546875 112.871094 63.488281 112.867188 63.433594 112.839844 C 63.378906 112.8125 63.34375 112.765625 63.335938 112.703125 C 63.324219 112.640625 63.339844 112.589844 63.386719 112.542969 C 63.429688 112.5 63.484375 112.480469 63.542969 112.488281 C 63.78125 112.449219 64.015625 112.414062 64.253906 112.378906 C 64.34375 112.386719 64.398438 112.4375 64.417969 112.527344 C 64.4375 112.617188 64.40625 112.683594 64.328125 112.726562 Z M 56.328125 114.660156 C 56.234375 114.660156 56.175781 114.613281 56.148438 114.527344 C 56.121094 114.4375 56.148438 114.367188 56.226562 114.316406 C 56.453125 114.238281 56.679688 114.164062 56.90625 114.09375 C 57.019531 114.0625 57.09375 114.101562 57.132812 114.210938 C 57.160156 114.320312 57.121094 114.394531 57.015625 114.433594 C 56.789062 114.503906 56.5625 114.578125 56.335938 114.652344 Z M 61.855469 113.160156 L 61.84375 113.164062 L 61.148438 113.3125 C 61.035156 113.332031 60.964844 113.289062 60.933594 113.175781 C 60.902344 113.054688 60.949219 112.984375 61.070312 112.960938 C 61.304688 112.902344 61.539062 112.859375 61.773438 112.8125 C 61.867188 112.816406 61.921875 112.867188 61.941406 112.953125 C 61.964844 113.042969 61.9375 113.113281 61.855469 113.160156 Z M 58.722656 113.921875 C 58.671875 113.953125 58.613281 113.960938 58.554688 113.9375 C 58.5 113.914062 58.460938 113.871094 58.445312 113.8125 C 58.429688 113.75 58.441406 113.695312 58.480469 113.648438 C 58.519531 113.597656 58.570312 113.574219 58.632812 113.578125 C 58.832031 113.523438 59.027344 113.472656 59.226562 113.417969 L 59.328125 113.394531 C 59.417969 113.398438 59.476562 113.441406 59.5 113.53125 C 59.523438 113.621094 59.496094 113.6875 59.417969 113.738281 L 59.316406 113.765625 L 58.726562 113.921875 Z M 58.722656 113.921875 " fill-opacity="1" fill-rule="nonzero"/></g></g></g><g clip-path="url(#6f4d5de7fc)"><g clip-path="url(#9d80601398)"><g clip-path="url(#6846ff502f)"><path fill="#ffffff" d="M 56.5625 141.816406 L 56.539062 141.820312 L 56.1875 141.867188 C 56.082031 141.875 56.015625 141.828125 55.992188 141.726562 L 55.921875 141.378906 C 55.902344 141.265625 55.949219 141.195312 56.058594 141.167969 C 56.171875 141.148438 56.238281 141.195312 56.269531 141.304688 L 56.304688 141.488281 L 56.492188 141.46875 C 56.582031 141.476562 56.632812 141.527344 56.652344 141.617188 C 56.667969 141.707031 56.636719 141.773438 56.554688 141.816406 Z M 56.5625 141.816406 " fill-opacity="1" fill-rule="nonzero"/></g></g></g><g clip-path="url(#d04f546e61)"><g clip-path="url(#5115f5511a)"><g clip-path="url(#b73542d569)"><path fill="#ffffff" d="M 56.128906 141.421875 L 56.117188 141.425781 C 56.007812 141.445312 55.9375 141.398438 55.90625 141.289062 L 55.839844 140.9375 C 55.824219 140.851562 55.855469 140.785156 55.933594 140.742188 L 56.253906 140.585938 C 56.300781 140.542969 56.355469 140.527344 56.414062 140.539062 C 56.476562 140.550781 56.519531 140.585938 56.546875 140.640625 C 56.574219 140.695312 56.574219 140.753906 56.546875 140.808594 C 56.519531 140.863281 56.472656 140.894531 56.410156 140.90625 L 56.214844 141.003906 L 56.257812 141.21875 C 56.273438 141.324219 56.230469 141.390625 56.128906 141.421875 Z M 56.128906 141.421875 " fill-opacity="1" fill-rule="nonzero"/></g></g></g><g clip-path="url(#24d724c674)"><g clip-path="url(#0710f2386f)"><g clip-path="url(#d6ad2b888d)"><path fill="#ffffff" d="M 77.035156 135.160156 C 77.023438 135.167969 77.007812 135.171875 76.992188 135.171875 L 76.308594 135.183594 C 76.21875 135.160156 76.175781 135.101562 76.171875 135.011719 C 76.167969 134.917969 76.210938 134.859375 76.296875 134.828125 C 76.527344 134.824219 76.757812 134.816406 76.988281 134.816406 C 77.078125 134.832031 77.125 134.886719 77.136719 134.972656 C 77.152344 135.0625 77.117188 135.125 77.039062 135.164062 Z M 57.917969 140.175781 C 57.820312 140.199219 57.753906 140.167969 57.707031 140.078125 C 57.664062 139.972656 57.695312 139.894531 57.796875 139.84375 L 58.421875 139.554688 C 58.523438 139.511719 58.605469 139.539062 58.65625 139.640625 C 58.699219 139.746094 58.671875 139.824219 58.566406 139.878906 L 57.945312 140.164062 Z M 60.109375 139.191406 C 60.015625 139.191406 59.953125 139.152344 59.925781 139.0625 C 59.894531 138.976562 59.917969 138.90625 59.992188 138.851562 L 60.625 138.582031 C 60.71875 138.570312 60.78125 138.609375 60.816406 138.695312 C 60.855469 138.78125 60.835938 138.851562 60.765625 138.910156 L 60.132812 139.179688 Z M 74.628906 135.269531 L 74.597656 135.277344 C 74.371094 135.296875 74.144531 135.316406 73.917969 135.339844 C 73.824219 135.324219 73.773438 135.265625 73.765625 135.171875 C 73.753906 135.082031 73.792969 135.015625 73.882812 134.980469 C 74.113281 134.960938 74.339844 134.941406 74.570312 134.921875 C 74.683594 134.917969 74.75 134.972656 74.761719 135.085938 C 74.765625 135.179688 74.722656 135.238281 74.632812 135.269531 Z M 62.324219 138.273438 C 62.230469 138.277344 62.171875 138.234375 62.144531 138.148438 C 62.113281 138.058594 62.136719 137.988281 62.210938 137.9375 L 62.855469 137.691406 C 62.964844 137.65625 63.042969 137.6875 63.085938 137.792969 C 63.121094 137.902344 63.085938 137.980469 62.980469 138.023438 L 62.34375 138.269531 Z M 72.234375 135.542969 L 72.214844 135.550781 C 71.988281 135.582031 71.765625 135.617188 71.539062 135.65625 C 71.425781 135.671875 71.355469 135.621094 71.335938 135.507812 C 71.320312 135.394531 71.371094 135.328125 71.480469 135.304688 C 71.710938 135.265625 71.933594 135.230469 72.164062 135.199219 C 72.277344 135.183594 72.34375 135.234375 72.367188 135.347656 C 72.378906 135.441406 72.339844 135.507812 72.25 135.542969 Z M 64.582031 137.449219 C 64.488281 137.449219 64.429688 137.402344 64.402344 137.316406 C 64.375 137.230469 64.402344 137.160156 64.476562 137.109375 L 65.132812 136.886719 C 65.238281 136.859375 65.3125 136.894531 65.355469 137 C 65.382812 137.109375 65.34375 137.183594 65.238281 137.226562 C 65.023438 137.296875 64.804688 137.367188 64.589844 137.445312 Z M 69.867188 135.972656 C 69.644531 136.019531 69.421875 136.066406 69.199219 136.117188 C 69.085938 136.140625 69.015625 136.09375 68.984375 135.984375 C 68.964844 135.871094 69.011719 135.796875 69.121094 135.769531 C 69.34375 135.710938 69.570312 135.667969 69.792969 135.621094 C 69.886719 135.625 69.945312 135.671875 69.96875 135.761719 C 69.988281 135.851562 69.957031 135.921875 69.878906 135.96875 Z M 66.882812 136.714844 C 66.792969 136.710938 66.734375 136.664062 66.710938 136.574219 C 66.6875 136.488281 66.714844 136.417969 66.792969 136.371094 L 67.453125 136.179688 C 67.546875 136.183594 67.605469 136.230469 67.628906 136.320312 C 67.652344 136.410156 67.625 136.480469 67.546875 136.527344 L 66.882812 136.703125 Z M 66.882812 136.714844 " fill-opacity="1" fill-rule="nonzero"/></g></g></g><g clip-path="url(#c831a53b0f)"><g clip-path="url(#fbf3b884d4)"><g clip-path="url(#2dea9ab24a)"><path fill="#ffffff" d="M 79.113281 136.039062 C 79.023438 136.046875 78.960938 136.007812 78.925781 135.925781 C 78.890625 135.847656 78.90625 135.773438 78.96875 135.714844 L 79.132812 135.609375 L 78.945312 135.207031 L 78.695312 135.195312 C 78.582031 135.1875 78.527344 135.125 78.527344 135.011719 C 78.535156 134.894531 78.597656 134.839844 78.710938 134.839844 L 79.070312 134.855469 C 79.140625 134.863281 79.191406 134.894531 79.222656 134.957031 L 79.527344 135.605469 C 79.566406 135.699219 79.542969 135.777344 79.453125 135.832031 C 79.355469 135.890625 79.253906 135.953125 79.15625 136.015625 C 79.144531 136.027344 79.128906 136.035156 79.113281 136.039062 Z M 79.113281 136.039062 " fill-opacity="1" fill-rule="nonzero"/></g></g></g><g clip-path="url(#09282bfebd)"><g clip-path="url(#d3089663c7)"><g clip-path="url(#f55192f467)"><path fill="#ffffff" d="M 66.089844 140.390625 L 65.421875 140.570312 C 65.332031 140.566406 65.273438 140.519531 65.246094 140.429688 C 65.222656 140.339844 65.25 140.273438 65.332031 140.222656 L 65.996094 140.046875 C 66.089844 140.050781 66.148438 140.097656 66.171875 140.1875 C 66.195312 140.277344 66.167969 140.34375 66.085938 140.394531 Z M 67.757812 139.949219 C 67.636719 139.980469 67.558594 139.9375 67.527344 139.816406 C 67.496094 139.699219 67.539062 139.621094 67.660156 139.589844 L 68.320312 139.402344 C 68.433594 139.375 68.511719 139.414062 68.546875 139.527344 C 68.578125 139.640625 68.535156 139.714844 68.425781 139.75 L 67.761719 139.9375 Z M 70.074219 139.285156 C 69.980469 139.285156 69.921875 139.238281 69.898438 139.148438 C 69.875 139.058594 69.902344 138.988281 69.980469 138.941406 L 70.640625 138.742188 C 70.691406 138.707031 70.746094 138.703125 70.808594 138.722656 C 70.867188 138.746094 70.90625 138.785156 70.921875 138.84375 C 70.941406 138.90625 70.929688 138.960938 70.894531 139.011719 C 70.855469 139.058594 70.804688 139.085938 70.742188 139.085938 L 70.082031 139.285156 Z M 63.746094 140.949219 L 63.734375 140.949219 C 63.507812 140.996094 63.28125 141.035156 63.050781 141.074219 C 62.945312 141.085938 62.875 141.039062 62.851562 140.933594 C 62.835938 140.828125 62.882812 140.757812 62.988281 140.730469 C 63.214844 140.695312 63.4375 140.652344 63.660156 140.609375 C 63.753906 140.617188 63.808594 140.664062 63.828125 140.753906 C 63.851562 140.84375 63.820312 140.910156 63.742188 140.957031 Z M 72.382812 138.585938 C 72.289062 138.582031 72.230469 138.535156 72.207031 138.449219 C 72.183594 138.359375 72.210938 138.289062 72.289062 138.242188 L 72.949219 138.039062 C 73 138.003906 73.054688 137.996094 73.113281 138.015625 C 73.175781 138.035156 73.210938 138.078125 73.230469 138.136719 C 73.25 138.195312 73.242188 138.25 73.203125 138.300781 C 73.167969 138.351562 73.117188 138.378906 73.054688 138.378906 L 72.394531 138.582031 Z M 74.683594 137.871094 C 74.59375 137.867188 74.535156 137.824219 74.507812 137.734375 C 74.484375 137.648438 74.507812 137.578125 74.582031 137.527344 L 75.242188 137.320312 C 75.292969 137.285156 75.347656 137.28125 75.40625 137.300781 C 75.464844 137.320312 75.503906 137.363281 75.523438 137.421875 C 75.539062 137.480469 75.53125 137.535156 75.496094 137.585938 C 75.460938 137.636719 75.410156 137.660156 75.347656 137.664062 L 74.691406 137.867188 Z M 61.363281 141.316406 L 61.339844 141.324219 L 60.65625 141.402344 C 60.542969 141.410156 60.476562 141.359375 60.457031 141.246094 C 60.449219 141.128906 60.5 141.066406 60.613281 141.046875 L 61.296875 140.96875 C 61.386719 140.980469 61.441406 141.027344 61.457031 141.117188 C 61.476562 141.207031 61.445312 141.273438 61.363281 141.316406 Z M 76.984375 137.152344 C 76.878906 137.175781 76.808594 137.136719 76.769531 137.03125 C 76.742188 136.921875 76.78125 136.847656 76.886719 136.808594 L 77.269531 136.691406 C 77.355469 136.664062 77.441406 136.632812 77.523438 136.597656 C 77.570312 136.558594 77.625 136.546875 77.6875 136.558594 C 77.746094 136.574219 77.789062 136.613281 77.8125 136.667969 C 77.835938 136.726562 77.832031 136.78125 77.800781 136.835938 C 77.769531 136.890625 77.722656 136.917969 77.660156 136.925781 C 77.566406 136.96875 77.46875 137.003906 77.371094 137.03125 L 76.992188 137.148438 Z M 58.96875 141.574219 L 58.941406 141.582031 L 58.253906 141.652344 C 58.199219 141.675781 58.140625 141.671875 58.085938 141.640625 C 58.035156 141.609375 58.003906 141.5625 57.996094 141.5 C 57.992188 141.4375 58.011719 141.382812 58.058594 141.34375 C 58.101562 141.300781 58.15625 141.285156 58.21875 141.296875 L 58.902344 141.230469 C 58.996094 141.238281 59.050781 141.289062 59.066406 141.378906 C 59.082031 141.472656 59.050781 141.539062 58.96875 141.578125 Z M 58.96875 141.574219 " fill-opacity="1" fill-rule="nonzero"/></g></g></g><g clip-path="url(#17b60653bd)"><g clip-path="url(#7340ea9882)"><g clip-path="url(#d43510fd2f)"><path fill="#ffffff" d="M 68.035156 129.082031 C 67.886719 129.125 67.738281 129.117188 67.59375 129.058594 L 63.757812 127.574219 L 61.164062 130.769531 C 61.066406 130.890625 60.941406 130.96875 60.792969 131.007812 C 60.644531 131.050781 60.496094 131.042969 60.351562 130.984375 C 60.207031 130.929688 60.09375 130.835938 60.011719 130.707031 C 59.925781 130.578125 59.886719 130.433594 59.898438 130.28125 L 60.121094 126.175781 L 56.285156 124.6875 C 56.140625 124.632812 56.023438 124.539062 55.941406 124.410156 C 55.855469 124.28125 55.820312 124.140625 55.828125 123.984375 C 55.835938 123.832031 55.890625 123.691406 55.988281 123.574219 C 56.085938 123.453125 56.207031 123.375 56.355469 123.335938 L 60.332031 122.277344 L 60.546875 118.164062 C 60.554688 118.007812 60.605469 117.871094 60.703125 117.75 C 60.800781 117.628906 60.925781 117.550781 61.074219 117.511719 C 61.226562 117.46875 61.371094 117.480469 61.515625 117.535156 C 61.660156 117.589844 61.773438 117.683594 61.859375 117.8125 L 64.089844 121.265625 L 68.066406 120.210938 C 68.214844 120.171875 68.363281 120.179688 68.507812 120.234375 C 68.652344 120.289062 68.765625 120.382812 68.847656 120.511719 C 68.933594 120.644531 68.972656 120.785156 68.960938 120.9375 C 68.953125 121.09375 68.902344 121.230469 68.804688 121.351562 L 66.207031 124.546875 L 68.441406 128 C 68.503906 128.09375 68.539062 128.199219 68.550781 128.3125 C 68.5625 128.425781 68.546875 128.535156 68.503906 128.640625 C 68.464844 128.746094 68.402344 128.839844 68.316406 128.914062 C 68.230469 128.992188 68.132812 129.042969 68.023438 129.074219 Z M 58.847656 124.152344 L 61.117188 125.027344 C 61.261719 125.085938 61.375 125.175781 61.460938 125.308594 C 61.542969 125.4375 61.582031 125.578125 61.574219 125.734375 L 61.449219 128.164062 L 62.984375 126.273438 C 63.082031 126.152344 63.207031 126.074219 63.355469 126.035156 C 63.503906 125.996094 63.652344 126.003906 63.796875 126.058594 L 66.066406 126.9375 L 64.753906 124.886719 C 64.667969 124.757812 64.632812 124.617188 64.640625 124.460938 C 64.648438 124.308594 64.699219 124.171875 64.796875 124.050781 L 66.335938 122.160156 L 63.96875 122.789062 C 63.816406 122.828125 63.671875 122.820312 63.527344 122.765625 C 63.382812 122.710938 63.269531 122.617188 63.183594 122.488281 L 61.867188 120.441406 L 61.742188 122.871094 C 61.734375 123.027344 61.683594 123.164062 61.585938 123.28125 C 61.488281 123.402344 61.363281 123.480469 61.214844 123.519531 Z M 58.847656 124.152344 " fill-opacity="1" fill-rule="nonzero"/></g></g></g><g clip-path="url(#4d075a7ef1)"><g clip-path="url(#be936deb76)"><g clip-path="url(#bd96090290)"><path fill="#ffffff" d="M 81.453125 129.757812 C 81.394531 129.773438 81.332031 129.78125 81.269531 129.78125 C 80.9375 129.78125 80.714844 129.625 80.597656 129.316406 L 79.570312 126.53125 L 76.789062 125.496094 C 76.480469 125.378906 76.324219 125.15625 76.324219 124.824219 C 76.324219 124.496094 76.480469 124.273438 76.789062 124.15625 L 79.578125 123.125 L 80.609375 120.347656 C 80.726562 120.039062 80.949219 119.882812 81.28125 119.882812 C 81.609375 119.882812 81.832031 120.039062 81.949219 120.347656 L 82.980469 123.132812 L 85.757812 124.167969 C 86.074219 124.277344 86.234375 124.503906 86.234375 124.839844 C 86.234375 125.175781 86.078125 125.402344 85.761719 125.515625 L 82.972656 126.542969 L 81.9375 129.324219 C 81.851562 129.550781 81.691406 129.695312 81.453125 129.757812 Z M 79.082031 124.824219 L 80.363281 125.300781 C 80.570312 125.375 80.710938 125.515625 80.785156 125.71875 L 81.261719 127.007812 L 81.738281 125.722656 C 81.8125 125.519531 81.953125 125.378906 82.160156 125.304688 L 83.445312 124.828125 L 82.164062 124.351562 C 81.957031 124.273438 81.816406 124.132812 81.742188 123.929688 L 81.269531 122.644531 L 80.789062 123.925781 C 80.714844 124.132812 80.574219 124.273438 80.367188 124.347656 Z M 79.082031 124.824219 " fill-opacity="1" fill-rule="nonzero"/></g></g></g><g clip-path="url(#b8a6863d14)"><g clip-path="url(#ae244020eb)"><g clip-path="url(#7a5219bb83)"><path fill="#ffffff" d="M 49.902344 137.777344 C 49.726562 137.824219 49.558594 137.804688 49.394531 137.722656 L 46.75 136.367188 L 44 137.484375 C 43.691406 137.609375 43.429688 137.550781 43.203125 137.308594 C 42.980469 137.0625 42.941406 136.792969 43.09375 136.5 L 44.449219 133.855469 L 43.332031 131.105469 C 43.207031 130.796875 43.265625 130.53125 43.511719 130.308594 C 43.753906 130.085938 44.023438 130.046875 44.316406 130.199219 L 46.957031 131.566406 L 49.703125 130.441406 C 50.011719 130.3125 50.277344 130.375 50.5 130.617188 C 50.722656 130.859375 50.761719 131.128906 50.609375 131.425781 L 49.257812 134.074219 L 50.375 136.824219 C 50.414062 136.917969 50.429688 137.015625 50.425781 137.121094 C 50.421875 137.222656 50.398438 137.320312 50.351562 137.410156 C 50.308594 137.503906 50.246094 137.582031 50.164062 137.648438 C 50.085938 137.710938 49.996094 137.757812 49.898438 137.785156 Z M 46.601562 134.894531 C 46.777344 134.851562 46.949219 134.867188 47.109375 134.953125 L 48.328125 135.578125 L 47.8125 134.308594 C 47.730469 134.105469 47.738281 133.910156 47.835938 133.714844 L 48.460938 132.496094 L 47.191406 133.011719 C 46.992188 133.097656 46.792969 133.089844 46.597656 132.988281 L 45.378906 132.363281 L 45.898438 133.632812 C 45.980469 133.835938 45.96875 134.035156 45.863281 134.230469 L 45.238281 135.449219 L 46.507812 134.929688 Z M 46.601562 134.894531 " fill-opacity="1" fill-rule="nonzero"/></g></g></g><g clip-path="url(#a0b878b7ca)"><g clip-path="url(#afda095bed)"><g clip-path="url(#2e215b37e0)"><path fill="#ffffff" d="M 48.402344 139.792969 C 48.019531 139.894531 47.628906 139.957031 47.234375 139.984375 C 46.839844 140.007812 46.445312 139.996094 46.054688 139.941406 C 45.660156 139.890625 45.277344 139.800781 44.902344 139.671875 C 44.527344 139.542969 44.171875 139.378906 43.828125 139.179688 C 43.484375 138.984375 43.164062 138.753906 42.867188 138.492188 C 42.570312 138.230469 42.304688 137.941406 42.0625 137.625 C 41.824219 137.3125 41.613281 136.976562 41.441406 136.621094 C 41.265625 136.265625 41.128906 135.898438 41.027344 135.515625 C 40.925781 135.132812 40.863281 134.742188 40.835938 134.347656 C 40.8125 133.953125 40.824219 133.558594 40.878906 133.167969 C 40.929688 132.773438 41.019531 132.390625 41.148438 132.015625 C 41.277344 131.640625 41.441406 131.285156 41.636719 130.941406 C 41.835938 130.597656 42.066406 130.28125 42.328125 129.980469 C 42.589844 129.683594 42.878906 129.417969 43.191406 129.175781 C 43.507812 128.9375 43.84375 128.726562 44.199219 128.554688 C 44.554688 128.378906 44.921875 128.242188 45.304688 128.140625 C 45.6875 128.039062 46.078125 127.976562 46.472656 127.949219 C 46.867188 127.925781 47.261719 127.9375 47.652344 127.992188 C 48.042969 128.042969 48.429688 128.132812 48.804688 128.261719 C 49.175781 128.390625 49.535156 128.554688 49.878906 128.75 C 50.222656 128.949219 50.539062 129.179688 50.835938 129.441406 C 51.132812 129.703125 51.402344 129.992188 51.644531 130.304688 C 51.882812 130.621094 52.089844 130.957031 52.265625 131.3125 C 52.441406 131.667969 52.578125 132.035156 52.679688 132.417969 C 52.78125 132.800781 52.84375 133.191406 52.867188 133.585938 C 52.894531 133.980469 52.878906 134.375 52.828125 134.765625 C 52.773438 135.15625 52.683594 135.542969 52.554688 135.914062 C 52.429688 136.289062 52.265625 136.648438 52.066406 136.992188 C 51.867188 137.332031 51.636719 137.652344 51.375 137.949219 C 51.113281 138.246094 50.828125 138.515625 50.511719 138.757812 C 50.199219 138.996094 49.863281 139.203125 49.507812 139.378906 C 49.152344 139.554688 48.785156 139.691406 48.402344 139.792969 Z M 45.671875 129.519531 C 45.378906 129.597656 45.097656 129.703125 44.828125 129.835938 C 44.554688 129.96875 44.300781 130.128906 44.058594 130.3125 C 43.820312 130.496094 43.601562 130.699219 43.402344 130.925781 C 43.199219 131.152344 43.027344 131.398438 42.875 131.660156 C 42.722656 131.917969 42.597656 132.191406 42.5 132.480469 C 42.402344 132.765625 42.332031 133.058594 42.292969 133.355469 C 42.253906 133.65625 42.242188 133.957031 42.261719 134.257812 C 42.28125 134.558594 42.328125 134.855469 42.40625 135.148438 C 42.484375 135.441406 42.589844 135.722656 42.722656 135.992188 C 42.855469 136.265625 43.015625 136.519531 43.199219 136.757812 C 43.382812 137 43.585938 137.21875 43.8125 137.417969 C 44.039062 137.617188 44.285156 137.792969 44.542969 137.945312 C 44.804688 138.097656 45.078125 138.222656 45.367188 138.320312 C 45.652344 138.417969 45.945312 138.484375 46.242188 138.527344 C 46.542969 138.566406 46.84375 138.578125 47.144531 138.558594 C 47.445312 138.539062 47.742188 138.488281 48.035156 138.414062 C 48.328125 138.335938 48.609375 138.230469 48.878906 138.097656 C 49.148438 137.964844 49.40625 137.804688 49.644531 137.621094 C 49.886719 137.4375 50.105469 137.234375 50.304688 137.007812 C 50.503906 136.78125 50.679688 136.535156 50.832031 136.273438 C 50.984375 136.015625 51.109375 135.738281 51.207031 135.453125 C 51.304688 135.167969 51.371094 134.875 51.414062 134.578125 C 51.453125 134.277344 51.464844 133.976562 51.445312 133.675781 C 51.425781 133.375 51.375 133.078125 51.300781 132.785156 C 51.222656 132.492188 51.117188 132.210938 50.980469 131.941406 C 50.847656 131.671875 50.691406 131.414062 50.507812 131.175781 C 50.324219 130.933594 50.117188 130.714844 49.890625 130.515625 C 49.664062 130.316406 49.421875 130.140625 49.160156 129.988281 C 48.898438 129.839844 48.625 129.714844 48.339844 129.617188 C 48.054688 129.519531 47.761719 129.449219 47.460938 129.410156 C 47.164062 129.367188 46.863281 129.359375 46.5625 129.375 C 46.261719 129.394531 45.964844 129.445312 45.671875 129.519531 Z M 45.671875 129.519531 " fill-opacity="1" fill-rule="nonzero"/></g></g></g><g clip-path="url(#8dcc07a2c2)"><g clip-path="url(#7d5c9fb785)"><g clip-path="url(#84975d1c39)"><path fill="#ffffff" d="M 64.972656 132.152344 C 64.460938 132.285156 63.945312 132.371094 63.417969 132.402344 C 62.890625 132.4375 62.367188 132.417969 61.84375 132.347656 C 61.320312 132.277344 60.808594 132.160156 60.308594 131.988281 C 59.808594 131.816406 59.332031 131.601562 58.875 131.335938 C 58.417969 131.070312 57.992188 130.761719 57.597656 130.414062 C 57.203125 130.066406 56.84375 129.683594 56.523438 129.261719 C 56.203125 128.84375 55.925781 128.398438 55.695312 127.921875 C 55.460938 127.449219 55.277344 126.957031 55.140625 126.449219 C 55.007812 125.9375 54.921875 125.417969 54.886719 124.890625 C 54.855469 124.367188 54.875 123.839844 54.941406 123.316406 C 55.011719 122.796875 55.132812 122.285156 55.304688 121.785156 C 55.476562 121.285156 55.691406 120.808594 55.957031 120.351562 C 56.222656 119.894531 56.527344 119.46875 56.878906 119.070312 C 57.226562 118.675781 57.609375 118.316406 58.03125 117.996094 C 58.449219 117.675781 58.894531 117.402344 59.371094 117.167969 C 59.84375 116.9375 60.335938 116.753906 60.84375 116.617188 C 61.355469 116.480469 61.875 116.398438 62.398438 116.363281 C 62.925781 116.328125 63.453125 116.347656 63.972656 116.417969 C 64.496094 116.488281 65.007812 116.609375 65.507812 116.777344 C 66.007812 116.949219 66.484375 117.167969 66.941406 117.433594 C 67.398438 117.695312 67.824219 118.003906 68.21875 118.351562 C 68.617188 118.699219 68.972656 119.085938 69.292969 119.503906 C 69.613281 119.921875 69.890625 120.371094 70.125 120.84375 C 70.355469 121.316406 70.539062 121.808594 70.675781 122.320312 C 70.8125 122.828125 70.894531 123.347656 70.925781 123.875 C 70.960938 124.402344 70.941406 124.925781 70.871094 125.449219 C 70.800781 125.972656 70.679688 126.480469 70.511719 126.980469 C 70.339844 127.480469 70.121094 127.957031 69.859375 128.414062 C 69.59375 128.871094 69.285156 129.296875 68.9375 129.691406 C 68.589844 130.089844 68.207031 130.449219 67.785156 130.769531 C 67.367188 131.089844 66.921875 131.363281 66.449219 131.597656 C 65.972656 131.832031 65.480469 132.015625 64.972656 132.152344 Z M 61.210938 118 C 60.792969 118.109375 60.386719 118.261719 60 118.453125 C 59.609375 118.644531 59.242188 118.871094 58.898438 119.132812 C 58.550781 119.398438 58.238281 119.691406 57.949219 120.019531 C 57.664062 120.34375 57.410156 120.695312 57.191406 121.070312 C 56.976562 121.445312 56.796875 121.839844 56.65625 122.25 C 56.515625 122.660156 56.417969 123.078125 56.359375 123.507812 C 56.300781 123.941406 56.285156 124.371094 56.316406 124.804688 C 56.34375 125.238281 56.410156 125.664062 56.523438 126.082031 C 56.632812 126.503906 56.785156 126.90625 56.976562 127.296875 C 57.167969 127.6875 57.394531 128.054688 57.660156 128.398438 C 57.921875 128.742188 58.21875 129.058594 58.542969 129.34375 C 58.867188 129.632812 59.21875 129.882812 59.59375 130.101562 C 59.96875 130.320312 60.363281 130.5 60.773438 130.636719 C 61.183594 130.777344 61.605469 130.878906 62.035156 130.933594 C 62.464844 130.992188 62.894531 131.007812 63.328125 130.980469 C 63.761719 130.953125 64.1875 130.882812 64.605469 130.769531 C 65.027344 130.660156 65.429688 130.507812 65.820312 130.316406 C 66.210938 130.125 66.578125 129.898438 66.921875 129.636719 C 67.265625 129.371094 67.582031 129.078125 67.871094 128.75 C 68.15625 128.425781 68.40625 128.074219 68.625 127.699219 C 68.84375 127.324219 69.023438 126.929688 69.164062 126.519531 C 69.304688 126.109375 69.402344 125.691406 69.460938 125.257812 C 69.515625 124.828125 69.53125 124.398438 69.503906 123.964844 C 69.476562 123.53125 69.40625 123.105469 69.296875 122.6875 C 69.183594 122.265625 69.03125 121.863281 68.839844 121.472656 C 68.648438 121.085938 68.421875 120.71875 68.15625 120.375 C 67.894531 120.03125 67.597656 119.714844 67.273438 119.429688 C 66.949219 119.140625 66.597656 118.890625 66.222656 118.671875 C 65.847656 118.453125 65.453125 118.273438 65.042969 118.136719 C 64.632812 117.996094 64.214844 117.894531 63.785156 117.835938 C 63.355469 117.78125 62.921875 117.765625 62.492188 117.792969 C 62.058594 117.820312 61.632812 117.886719 61.210938 118 Z M 61.210938 118 " fill-opacity="1" fill-rule="nonzero"/></g></g></g><g clip-path="url(#7f8c1d8bed)"><g clip-path="url(#c32bc08021)"><g clip-path="url(#35e1823bc0)"><path fill="#ffffff" d="M 82.871094 130.847656 C 82.476562 130.953125 82.074219 131.019531 81.664062 131.046875 C 81.257812 131.070312 80.847656 131.058594 80.445312 131.003906 C 80.039062 130.949219 79.640625 130.855469 79.253906 130.722656 C 78.867188 130.589844 78.496094 130.421875 78.140625 130.214844 C 77.785156 130.011719 77.457031 129.773438 77.148438 129.503906 C 76.839844 129.230469 76.5625 128.933594 76.3125 128.609375 C 76.066406 128.28125 75.851562 127.9375 75.671875 127.566406 C 75.492188 127.199219 75.347656 126.820312 75.242188 126.421875 C 75.136719 126.027344 75.070312 125.625 75.046875 125.214844 C 75.019531 124.808594 75.035156 124.398438 75.089844 123.992188 C 75.140625 123.589844 75.234375 123.191406 75.367188 122.804688 C 75.5 122.417969 75.667969 122.046875 75.875 121.691406 C 76.082031 121.335938 76.320312 121.007812 76.589844 120.699219 C 76.859375 120.390625 77.160156 120.113281 77.484375 119.863281 C 77.808594 119.617188 78.15625 119.402344 78.523438 119.222656 C 78.890625 119.039062 79.273438 118.898438 79.667969 118.792969 C 80.066406 118.6875 80.464844 118.621094 80.875 118.597656 C 81.285156 118.570312 81.691406 118.585938 82.097656 118.640625 C 82.503906 118.691406 82.898438 118.785156 83.289062 118.917969 C 83.675781 119.050781 84.046875 119.21875 84.402344 119.425781 C 84.753906 119.632812 85.085938 119.871094 85.394531 120.140625 C 85.699219 120.410156 85.976562 120.707031 86.226562 121.035156 C 86.476562 121.359375 86.691406 121.707031 86.871094 122.074219 C 87.050781 122.441406 87.195312 122.824219 87.296875 123.21875 C 87.402344 123.613281 87.46875 124.015625 87.492188 124.425781 C 87.519531 124.835938 87.503906 125.242188 87.449219 125.648438 C 87.394531 126.054688 87.300781 126.449219 87.171875 126.835938 C 87.039062 127.222656 86.867188 127.59375 86.664062 127.949219 C 86.457031 128.304688 86.21875 128.632812 85.949219 128.941406 C 85.679688 129.25 85.378906 129.527344 85.054688 129.777344 C 84.730469 130.023438 84.382812 130.238281 84.015625 130.417969 C 83.648438 130.601562 83.269531 130.742188 82.871094 130.847656 Z M 80.035156 120.171875 C 79.730469 120.253906 79.4375 120.363281 79.152344 120.503906 C 78.867188 120.644531 78.601562 120.808594 78.351562 121 C 78.097656 121.191406 77.871094 121.40625 77.660156 121.644531 C 77.453125 121.878906 77.269531 122.136719 77.109375 122.410156 C 76.953125 122.683594 76.820312 122.96875 76.71875 123.265625 C 76.617188 123.566406 76.542969 123.871094 76.503906 124.183594 C 76.460938 124.5 76.449219 124.8125 76.46875 125.128906 C 76.488281 125.441406 76.539062 125.753906 76.621094 126.058594 C 76.703125 126.363281 76.8125 126.660156 76.953125 126.941406 C 77.089844 127.226562 77.257812 127.492188 77.449219 127.742188 C 77.640625 127.996094 77.855469 128.226562 78.09375 128.433594 C 78.328125 128.640625 78.585938 128.824219 78.859375 128.984375 C 79.132812 129.144531 79.417969 129.273438 79.714844 129.375 C 80.015625 129.476562 80.320312 129.550781 80.632812 129.589844 C 80.949219 129.632812 81.261719 129.644531 81.578125 129.625 C 81.890625 129.605469 82.203125 129.554688 82.507812 129.472656 C 82.8125 129.390625 83.105469 129.28125 83.390625 129.140625 C 83.675781 129.003906 83.941406 128.835938 84.191406 128.644531 C 84.445312 128.453125 84.671875 128.238281 84.882812 128 C 85.089844 127.765625 85.273438 127.507812 85.433594 127.234375 C 85.589844 126.960938 85.722656 126.675781 85.824219 126.378906 C 85.925781 126.078125 85.996094 125.773438 86.039062 125.460938 C 86.082031 125.144531 86.09375 124.832031 86.070312 124.515625 C 86.050781 124.203125 86 123.890625 85.917969 123.585938 C 85.839844 123.28125 85.726562 122.988281 85.589844 122.703125 C 85.449219 122.417969 85.285156 122.152344 85.09375 121.902344 C 84.898438 121.652344 84.6875 121.421875 84.449219 121.214844 C 84.210938 121.003906 83.957031 120.820312 83.683594 120.664062 C 83.410156 120.503906 83.125 120.375 82.824219 120.273438 C 82.527344 120.167969 82.222656 120.097656 81.90625 120.054688 C 81.59375 120.015625 81.28125 120.003906 80.964844 120.023438 C 80.652344 120.042969 80.339844 120.09375 80.035156 120.171875 Z M 80.035156 120.171875 " fill-opacity="1" fill-rule="nonzero"/></g></g></g></svg>